solid 
   facet normal 0.000000e+00 0.000000e+00 -1.000000e+00
      outer loop
         vertex -4.110955e+00 -1.830315e+00 0.000000e+00
         vertex -4.500000e+00 5.510911e-16 0.000000e+00
         vertex -3.011088e+00 -3.344152e+00 0.000000e+00
      endloop
   endfacet
   facet normal 0.000000e+00 -0.000000e+00 -1.000000e+00
      outer loop
         vertex -4.500000e+00 5.510911e-16 0.000000e+00
         vertex -4.110955e+00 1.830315e+00 0.000000e+00
         vertex -3.011088e+00 -3.344152e+00 0.000000e+00
      endloop
   endfacet
   facet normal 0.000000e+00 0.000000e+00 -1.000000e+00
      outer loop
         vertex -3.011088e+00 -3.344152e+00 0.000000e+00
         vertex -4.110955e+00 1.830315e+00 0.000000e+00
         vertex -1.390576e+00 -4.279754e+00 0.000000e+00
      endloop
   endfacet
   facet normal 0.000000e+00 -0.000000e+00 -1.000000e+00
      outer loop
         vertex -4.110955e+00 1.830315e+00 0.000000e+00
         vertex -3.011088e+00 3.344152e+00 0.000000e+00
         vertex -1.390576e+00 -4.279754e+00 0.000000e+00
      endloop
   endfacet
   facet normal 0.000000e+00 0.000000e+00 -1.000000e+00
      outer loop
         vertex -1.390576e+00 -4.279754e+00 0.000000e+00
         vertex -1.934883e+00 -1.243474e+00 0.000000e+00
         vertex 4.703781e-01 -4.475348e+00 0.000000e+00
      endloop
   endfacet
   facet normal -0.000000e+00 -0.000000e+00 -1.000000e+00
      outer loop
         vertex -1.934883e+00 -1.243474e+00 0.000000e+00
         vertex -9.554545e-01 -2.092154e+00 0.000000e+00
         vertex 4.703781e-01 -4.475348e+00 0.000000e+00
      endloop
   endfacet
   facet normal 0.000000e+00 0.000000e+00 -1.000000e+00
      outer loop
         vertex 4.703781e-01 -4.475348e+00 0.000000e+00
         vertex -9.554545e-01 -2.092154e+00 0.000000e+00
         vertex 2.250000e+00 -3.897114e+00 0.000000e+00
      endloop
   endfacet
   facet normal -0.000000e+00 -0.000000e+00 -1.000000e+00
      outer loop
         vertex -9.554545e-01 -2.092154e+00 0.000000e+00
         vertex 3.273241e-01 -2.276589e+00 0.000000e+00
         vertex 2.250000e+00 -3.897114e+00 0.000000e+00
      endloop
   endfacet
   facet normal 0.000000e+00 0.000000e+00 -1.000000e+00
      outer loop
         vertex 2.250000e+00 -3.897114e+00 0.000000e+00
         vertex 3.273241e-01 -2.276589e+00 0.000000e+00
         vertex 3.640576e+00 -2.645034e+00 0.000000e+00
      endloop
   endfacet
   facet normal 0.000000e+00 -0.000000e+00 -1.000000e+00
      outer loop
         vertex 3.273241e-01 -2.276589e+00 0.000000e+00
         vertex 1.506180e+00 -1.738224e+00 0.000000e+00
         vertex 3.640576e+00 -2.645034e+00 0.000000e+00
      endloop
   endfacet
   facet normal 0.000000e+00 0.000000e+00 -1.000000e+00
      outer loop
         vertex 3.640576e+00 -2.645034e+00 0.000000e+00
         vertex 1.506180e+00 -1.738224e+00 0.000000e+00
         vertex 4.401664e+00 -9.356026e-01 0.000000e+00
      endloop
   endfacet
   facet normal 0.000000e+00 -0.000000e+00 -1.000000e+00
      outer loop
         vertex 1.506180e+00 -1.738224e+00 0.000000e+00
         vertex 2.206834e+00 -6.479849e-01 0.000000e+00
         vertex 4.401664e+00 -9.356026e-01 0.000000e+00
      endloop
   endfacet
   facet normal 0.000000e+00 0.000000e+00 -1.000000e+00
      outer loop
         vertex 4.401664e+00 -9.356026e-01 0.000000e+00
         vertex 2.206834e+00 -6.479849e-01 0.000000e+00
         vertex 4.401664e+00 9.356026e-01 0.000000e+00
      endloop
   endfacet
   facet normal 0.000000e+00 0.000000e+00 -1.000000e+00
      outer loop
         vertex 2.206834e+00 -6.479849e-01 0.000000e+00
         vertex 2.206834e+00 6.479849e-01 0.000000e+00
         vertex 4.401664e+00 9.356026e-01 0.000000e+00
      endloop
   endfacet
   facet normal 0.000000e+00 0.000000e+00 -1.000000e+00
      outer loop
         vertex 4.401664e+00 9.356026e-01 0.000000e+00
         vertex 2.206834e+00 6.479849e-01 0.000000e+00
         vertex 3.640576e+00 2.645034e+00 0.000000e+00
      endloop
   endfacet
   facet normal 0.000000e+00 0.000000e+00 -1.000000e+00
      outer loop
         vertex 2.206834e+00 6.479849e-01 0.000000e+00
         vertex 1.506180e+00 1.738224e+00 0.000000e+00
         vertex 3.640576e+00 2.645034e+00 0.000000e+00
      endloop
   endfacet
   facet normal 0.000000e+00 0.000000e+00 -1.000000e+00
      outer loop
         vertex 3.640576e+00 2.645034e+00 0.000000e+00
         vertex 1.506180e+00 1.738224e+00 0.000000e+00
         vertex 2.250000e+00 3.897114e+00 0.000000e+00
      endloop
   endfacet
   facet normal 0.000000e+00 0.000000e+00 -1.000000e+00
      outer loop
         vertex 1.506180e+00 1.738224e+00 0.000000e+00
         vertex 3.273241e-01 2.276589e+00 0.000000e+00
         vertex 2.250000e+00 3.897114e+00 0.000000e+00
      endloop
   endfacet
   facet normal 0.000000e+00 0.000000e+00 -1.000000e+00
      outer loop
         vertex 2.250000e+00 3.897114e+00 0.000000e+00
         vertex 3.273241e-01 2.276589e+00 0.000000e+00
         vertex 4.703781e-01 4.475348e+00 0.000000e+00
      endloop
   endfacet
   facet normal 0.000000e+00 0.000000e+00 -1.000000e+00
      outer loop
         vertex 3.273241e-01 2.276589e+00 0.000000e+00
         vertex -9.554545e-01 2.092154e+00 0.000000e+00
         vertex 4.703781e-01 4.475348e+00 0.000000e+00
      endloop
   endfacet
   facet normal 0.000000e+00 0.000000e+00 -1.000000e+00
      outer loop
         vertex 4.703781e-01 4.475348e+00 0.000000e+00
         vertex -9.554545e-01 2.092154e+00 0.000000e+00
         vertex -1.390576e+00 4.279754e+00 0.000000e+00
      endloop
   endfacet
   facet normal 0.000000e+00 0.000000e+00 -1.000000e+00
      outer loop
         vertex -9.554545e-01 2.092154e+00 0.000000e+00
         vertex -1.934883e+00 1.243474e+00 0.000000e+00
         vertex -1.390576e+00 4.279754e+00 0.000000e+00
      endloop
   endfacet
   facet normal 0.000000e+00 0.000000e+00 -1.000000e+00
      outer loop
         vertex -1.390576e+00 4.279754e+00 0.000000e+00
         vertex -1.934883e+00 1.243474e+00 0.000000e+00
         vertex -3.011088e+00 3.344152e+00 0.000000e+00
      endloop
   endfacet
   facet normal 0.000000e+00 0.000000e+00 -1.000000e+00
      outer loop
         vertex -1.934883e+00 1.243474e+00 0.000000e+00
         vertex -2.300000e+00 2.816688e-16 0.000000e+00
         vertex -3.011088e+00 3.344152e+00 0.000000e+00
      endloop
   endfacet
   facet normal -0.000000e+00 -0.000000e+00 -1.000000e+00
      outer loop
         vertex -3.011088e+00 3.344152e+00 0.000000e+00
         vertex -2.300000e+00 2.816688e-16 0.000000e+00
         vertex -1.390576e+00 -4.279754e+00 0.000000e+00
      endloop
   endfacet
   facet normal -0.000000e+00 -0.000000e+00 -1.000000e+00
      outer loop
         vertex -2.300000e+00 2.816688e-16 0.000000e+00
         vertex -1.934883e+00 -1.243474e+00 0.000000e+00
         vertex -1.390576e+00 -4.279754e+00 0.000000e+00
      endloop
   endfacet
   facet normal 0.000000e+00 0.000000e+00 1.000000e+00
      outer loop
         vertex -4.110955e+00 1.830315e+00 4.500000e+00
         vertex -4.500000e+00 5.510911e-16 4.500000e+00
         vertex -3.011088e+00 3.344152e+00 4.500000e+00
      endloop
   endfacet
   facet normal 0.000000e+00 -0.000000e+00 1.000000e+00
      outer loop
         vertex -4.500000e+00 5.510911e-16 4.500000e+00
         vertex -4.110955e+00 -1.830315e+00 4.500000e+00
         vertex -3.011088e+00 3.344152e+00 4.500000e+00
      endloop
   endfacet
   facet normal 0.000000e+00 0.000000e+00 1.000000e+00
      outer loop
         vertex -3.011088e+00 3.344152e+00 4.500000e+00
         vertex -4.110955e+00 -1.830315e+00 4.500000e+00
         vertex -1.390576e+00 4.279754e+00 4.500000e+00
      endloop
   endfacet
   facet normal 0.000000e+00 -0.000000e+00 1.000000e+00
      outer loop
         vertex -4.110955e+00 -1.830315e+00 4.500000e+00
         vertex -3.011088e+00 -3.344152e+00 4.500000e+00
         vertex -1.390576e+00 4.279754e+00 4.500000e+00
      endloop
   endfacet
   facet normal 0.000000e+00 0.000000e+00 1.000000e+00
      outer loop
         vertex -1.390576e+00 4.279754e+00 4.500000e+00
         vertex -1.934883e+00 1.243474e+00 4.500000e+00
         vertex 4.703781e-01 4.475348e+00 4.500000e+00
      endloop
   endfacet
   facet normal 0.000000e+00 -0.000000e+00 1.000000e+00
      outer loop
         vertex -1.934883e+00 1.243474e+00 4.500000e+00
         vertex -9.554545e-01 2.092154e+00 4.500000e+00
         vertex 4.703781e-01 4.475348e+00 4.500000e+00
      endloop
   endfacet
   facet normal 0.000000e+00 0.000000e+00 1.000000e+00
      outer loop
         vertex 4.703781e-01 4.475348e+00 4.500000e+00
         vertex -9.554545e-01 2.092154e+00 4.500000e+00
         vertex 2.250000e+00 3.897114e+00 4.500000e+00
      endloop
   endfacet
   facet normal 0.000000e+00 -0.000000e+00 1.000000e+00
      outer loop
         vertex -9.554545e-01 2.092154e+00 4.500000e+00
         vertex 3.273241e-01 2.276589e+00 4.500000e+00
         vertex 2.250000e+00 3.897114e+00 4.500000e+00
      endloop
   endfacet
   facet normal 0.000000e+00 0.000000e+00 1.000000e+00
      outer loop
         vertex 2.250000e+00 3.897114e+00 4.500000e+00
         vertex 3.273241e-01 2.276589e+00 4.500000e+00
         vertex 3.640576e+00 2.645034e+00 4.500000e+00
      endloop
   endfacet
   facet normal 0.000000e+00 -0.000000e+00 1.000000e+00
      outer loop
         vertex 3.273241e-01 2.276589e+00 4.500000e+00
         vertex 1.506180e+00 1.738224e+00 4.500000e+00
         vertex 3.640576e+00 2.645034e+00 4.500000e+00
      endloop
   endfacet
   facet normal -0.000000e+00 0.000000e+00 1.000000e+00
      outer loop
         vertex 3.640576e+00 2.645034e+00 4.500000e+00
         vertex 1.506180e+00 1.738224e+00 4.500000e+00
         vertex 4.401664e+00 9.356026e-01 4.500000e+00
      endloop
   endfacet
   facet normal 0.000000e+00 -0.000000e+00 1.000000e+00
      outer loop
         vertex 1.506180e+00 1.738224e+00 4.500000e+00
         vertex 2.206834e+00 6.479849e-01 4.500000e+00
         vertex 4.401664e+00 9.356026e-01 4.500000e+00
      endloop
   endfacet
   facet normal -0.000000e+00 0.000000e+00 1.000000e+00
      outer loop
         vertex 4.401664e+00 9.356026e-01 4.500000e+00
         vertex 2.206834e+00 6.479849e-01 4.500000e+00
         vertex 4.401664e+00 -9.356026e-01 4.500000e+00
      endloop
   endfacet
   facet normal -0.000000e+00 0.000000e+00 1.000000e+00
      outer loop
         vertex 2.206834e+00 6.479849e-01 4.500000e+00
         vertex 2.206834e+00 -6.479849e-01 4.500000e+00
         vertex 4.401664e+00 -9.356026e-01 4.500000e+00
      endloop
   endfacet
   facet normal 0.000000e+00 0.000000e+00 1.000000e+00
      outer loop
         vertex 4.401664e+00 -9.356026e-01 4.500000e+00
         vertex 2.206834e+00 -6.479849e-01 4.500000e+00
         vertex 3.640576e+00 -2.645034e+00 4.500000e+00
      endloop
   endfacet
   facet normal -0.000000e+00 0.000000e+00 1.000000e+00
      outer loop
         vertex 2.206834e+00 -6.479849e-01 4.500000e+00
         vertex 1.506180e+00 -1.738224e+00 4.500000e+00
         vertex 3.640576e+00 -2.645034e+00 4.500000e+00
      endloop
   endfacet
   facet normal 0.000000e+00 0.000000e+00 1.000000e+00
      outer loop
         vertex 3.640576e+00 -2.645034e+00 4.500000e+00
         vertex 1.506180e+00 -1.738224e+00 4.500000e+00
         vertex 2.250000e+00 -3.897114e+00 4.500000e+00
      endloop
   endfacet
   facet normal -0.000000e+00 0.000000e+00 1.000000e+00
      outer loop
         vertex 1.506180e+00 -1.738224e+00 4.500000e+00
         vertex 3.273241e-01 -2.276589e+00 4.500000e+00
         vertex 2.250000e+00 -3.897114e+00 4.500000e+00
      endloop
   endfacet
   facet normal 0.000000e+00 0.000000e+00 1.000000e+00
      outer loop
         vertex 2.250000e+00 -3.897114e+00 4.500000e+00
         vertex 3.273241e-01 -2.276589e+00 4.500000e+00
         vertex 4.703781e-01 -4.475348e+00 4.500000e+00
      endloop
   endfacet
   facet normal 0.000000e+00 0.000000e+00 1.000000e+00
      outer loop
         vertex 3.273241e-01 -2.276589e+00 4.500000e+00
         vertex -9.554545e-01 -2.092154e+00 4.500000e+00
         vertex 4.703781e-01 -4.475348e+00 4.500000e+00
      endloop
   endfacet
   facet normal 0.000000e+00 0.000000e+00 1.000000e+00
      outer loop
         vertex 4.703781e-01 -4.475348e+00 4.500000e+00
         vertex -9.554545e-01 -2.092154e+00 4.500000e+00
         vertex -1.390576e+00 -4.279754e+00 4.500000e+00
      endloop
   endfacet
   facet normal 0.000000e+00 0.000000e+00 1.000000e+00
      outer loop
         vertex -9.554545e-01 -2.092154e+00 4.500000e+00
         vertex -1.934883e+00 -1.243474e+00 4.500000e+00
         vertex -1.390576e+00 -4.279754e+00 4.500000e+00
      endloop
   endfacet
   facet normal 0.000000e+00 0.000000e+00 1.000000e+00
      outer loop
         vertex -1.390576e+00 -4.279754e+00 4.500000e+00
         vertex -1.934883e+00 -1.243474e+00 4.500000e+00
         vertex -3.011088e+00 -3.344152e+00 4.500000e+00
      endloop
   endfacet
   facet normal 0.000000e+00 0.000000e+00 1.000000e+00
      outer loop
         vertex -1.934883e+00 -1.243474e+00 4.500000e+00
         vertex -2.300000e+00 2.816688e-16 4.500000e+00
         vertex -3.011088e+00 -3.344152e+00 4.500000e+00
      endloop
   endfacet
   facet normal 0.000000e+00 -0.000000e+00 1.000000e+00
      outer loop
         vertex -3.011088e+00 -3.344152e+00 4.500000e+00
         vertex -2.300000e+00 2.816688e-16 4.500000e+00
         vertex -1.390576e+00 4.279754e+00 4.500000e+00
      endloop
   endfacet
   facet normal 0.000000e+00 -0.000000e+00 1.000000e+00
      outer loop
         vertex -2.300000e+00 2.816688e-16 4.500000e+00
         vertex -1.934883e+00 1.243474e+00 4.500000e+00
         vertex -1.390576e+00 4.279754e+00 4.500000e+00
      endloop
   endfacet
   facet normal 9.594930e-01 2.817325e-01 -0.000000e+00
      outer loop
         vertex -1.934883e+00 -1.243474e+00 4.500000e+00
         vertex -1.934883e+00 -1.243474e+00 0.000000e+00
         vertex -2.300000e+00 2.816688e-16 0.000000e+00
      endloop
   endfacet
   facet normal 9.594930e-01 2.817325e-01 0.000000e+00
      outer loop
         vertex -2.300000e+00 2.816688e-16 4.500000e+00
         vertex -1.934883e+00 -1.243474e+00 4.500000e+00
         vertex -2.300000e+00 2.816688e-16 0.000000e+00
      endloop
   endfacet
   facet normal 6.548607e-01 7.557496e-01 -0.000000e+00
      outer loop
         vertex -9.554545e-01 -2.092154e+00 4.500000e+00
         vertex -9.554545e-01 -2.092154e+00 0.000000e+00
         vertex -1.934883e+00 -1.243474e+00 0.000000e+00
      endloop
   endfacet
   facet normal 6.548607e-01 7.557496e-01 0.000000e+00
      outer loop
         vertex -1.934883e+00 -1.243474e+00 4.500000e+00
         vertex -9.554545e-01 -2.092154e+00 4.500000e+00
         vertex -1.934883e+00 -1.243474e+00 0.000000e+00
      endloop
   endfacet
   facet normal 1.423149e-01 9.898214e-01 -0.000000e+00
      outer loop
         vertex 3.273241e-01 -2.276589e+00 4.500000e+00
         vertex 3.273241e-01 -2.276589e+00 0.000000e+00
         vertex -9.554545e-01 -2.092154e+00 0.000000e+00
      endloop
   endfacet
   facet normal 1.423149e-01 9.898214e-01 0.000000e+00
      outer loop
         vertex -9.554545e-01 -2.092154e+00 4.500000e+00
         vertex 3.273241e-01 -2.276589e+00 4.500000e+00
         vertex -9.554545e-01 -2.092154e+00 0.000000e+00
      endloop
   endfacet
   facet normal -4.154151e-01 9.096320e-01 0.000000e+00
      outer loop
         vertex 1.506180e+00 -1.738224e+00 4.500000e+00
         vertex 1.506180e+00 -1.738224e+00 0.000000e+00
         vertex 3.273241e-01 -2.276589e+00 0.000000e+00
      endloop
   endfacet
   facet normal -4.154151e-01 9.096320e-01 0.000000e+00
      outer loop
         vertex 3.273241e-01 -2.276589e+00 4.500000e+00
         vertex 1.506180e+00 -1.738224e+00 4.500000e+00
         vertex 3.273241e-01 -2.276589e+00 0.000000e+00
      endloop
   endfacet
   facet normal -8.412535e-01 5.406408e-01 0.000000e+00
      outer loop
         vertex 2.206834e+00 -6.479849e-01 4.500000e+00
         vertex 2.206834e+00 -6.479849e-01 0.000000e+00
         vertex 1.506180e+00 -1.738224e+00 0.000000e+00
      endloop
   endfacet
   facet normal -8.412535e-01 5.406408e-01 0.000000e+00
      outer loop
         vertex 1.506180e+00 -1.738224e+00 4.500000e+00
         vertex 2.206834e+00 -6.479849e-01 4.500000e+00
         vertex 1.506180e+00 -1.738224e+00 0.000000e+00
      endloop
   endfacet
   facet normal -1.000000e+00 0.000000e+00 0.000000e+00
      outer loop
         vertex 2.206834e+00 6.479849e-01 4.500000e+00
         vertex 2.206834e+00 6.479849e-01 0.000000e+00
         vertex 2.206834e+00 -6.479849e-01 0.000000e+00
      endloop
   endfacet
   facet normal -1.000000e+00 -0.000000e+00 0.000000e+00
      outer loop
         vertex 2.206834e+00 -6.479849e-01 4.500000e+00
         vertex 2.206834e+00 6.479849e-01 4.500000e+00
         vertex 2.206834e+00 -6.479849e-01 0.000000e+00
      endloop
   endfacet
   facet normal -8.412535e-01 -5.406408e-01 0.000000e+00
      outer loop
         vertex 1.506180e+00 1.738224e+00 4.500000e+00
         vertex 1.506180e+00 1.738224e+00 0.000000e+00
         vertex 2.206834e+00 6.479849e-01 0.000000e+00
      endloop
   endfacet
   facet normal -8.412535e-01 -5.406408e-01 0.000000e+00
      outer loop
         vertex 2.206834e+00 6.479849e-01 4.500000e+00
         vertex 1.506180e+00 1.738224e+00 4.500000e+00
         vertex 2.206834e+00 6.479849e-01 0.000000e+00
      endloop
   endfacet
   facet normal -4.154151e-01 -9.096320e-01 0.000000e+00
      outer loop
         vertex 3.273241e-01 2.276589e+00 4.500000e+00
         vertex 3.273241e-01 2.276589e+00 0.000000e+00
         vertex 1.506180e+00 1.738224e+00 0.000000e+00
      endloop
   endfacet
   facet normal -4.154151e-01 -9.096320e-01 0.000000e+00
      outer loop
         vertex 1.506180e+00 1.738224e+00 4.500000e+00
         vertex 3.273241e-01 2.276589e+00 4.500000e+00
         vertex 1.506180e+00 1.738224e+00 0.000000e+00
      endloop
   endfacet
   facet normal 1.423149e-01 -9.898214e-01 0.000000e+00
      outer loop
         vertex -9.554545e-01 2.092154e+00 4.500000e+00
         vertex -9.554545e-01 2.092154e+00 0.000000e+00
         vertex 3.273241e-01 2.276589e+00 0.000000e+00
      endloop
   endfacet
   facet normal 1.423149e-01 -9.898214e-01 0.000000e+00
      outer loop
         vertex 3.273241e-01 2.276589e+00 4.500000e+00
         vertex -9.554545e-01 2.092154e+00 4.500000e+00
         vertex 3.273241e-01 2.276589e+00 0.000000e+00
      endloop
   endfacet
   facet normal 6.548607e-01 -7.557496e-01 0.000000e+00
      outer loop
         vertex -1.934883e+00 1.243474e+00 4.500000e+00
         vertex -1.934883e+00 1.243474e+00 0.000000e+00
         vertex -9.554545e-01 2.092154e+00 0.000000e+00
      endloop
   endfacet
   facet normal 6.548607e-01 -7.557496e-01 0.000000e+00
      outer loop
         vertex -9.554545e-01 2.092154e+00 4.500000e+00
         vertex -1.934883e+00 1.243474e+00 4.500000e+00
         vertex -9.554545e-01 2.092154e+00 0.000000e+00
      endloop
   endfacet
   facet normal 9.594930e-01 -2.817325e-01 0.000000e+00
      outer loop
         vertex -2.300000e+00 8.450063e-16 4.500000e+00
         vertex -2.300000e+00 8.450063e-16 0.000000e+00
         vertex -1.934883e+00 1.243474e+00 0.000000e+00
      endloop
   endfacet
   facet normal 9.594930e-01 -2.817325e-01 0.000000e+00
      outer loop
         vertex -1.934883e+00 1.243474e+00 4.500000e+00
         vertex -2.300000e+00 8.450063e-16 4.500000e+00
         vertex -1.934883e+00 1.243474e+00 0.000000e+00
      endloop
   endfacet
   facet normal -9.781476e-01 -2.079116e-01 0.000000e+00
      outer loop
         vertex -4.500000e+00 5.510911e-16 0.000000e+00
         vertex -4.110955e+00 -1.830315e+00 0.000000e+00
         vertex -4.110955e+00 -1.830315e+00 4.500000e+00
      endloop
   endfacet
   facet normal -9.781476e-01 -2.079116e-01 0.000000e+00
      outer loop
         vertex -4.500000e+00 5.510911e-16 0.000000e+00
         vertex -4.110955e+00 -1.830315e+00 4.500000e+00
         vertex -4.500000e+00 5.510911e-16 4.500000e+00
      endloop
   endfacet
   facet normal -8.090169e-01 -5.877853e-01 0.000000e+00
      outer loop
         vertex -4.110955e+00 -1.830315e+00 0.000000e+00
         vertex -3.011088e+00 -3.344152e+00 0.000000e+00
         vertex -3.011088e+00 -3.344152e+00 4.500000e+00
      endloop
   endfacet
   facet normal -8.090169e-01 -5.877853e-01 0.000000e+00
      outer loop
         vertex -4.110955e+00 -1.830315e+00 0.000000e+00
         vertex -3.011088e+00 -3.344152e+00 4.500000e+00
         vertex -4.110955e+00 -1.830315e+00 4.500000e+00
      endloop
   endfacet
   facet normal -4.999999e-01 -8.660254e-01 0.000000e+00
      outer loop
         vertex -3.011088e+00 -3.344152e+00 0.000000e+00
         vertex -1.390576e+00 -4.279754e+00 0.000000e+00
         vertex -1.390576e+00 -4.279754e+00 4.500000e+00
      endloop
   endfacet
   facet normal -4.999999e-01 -8.660254e-01 0.000000e+00
      outer loop
         vertex -3.011088e+00 -3.344152e+00 0.000000e+00
         vertex -1.390576e+00 -4.279754e+00 4.500000e+00
         vertex -3.011088e+00 -3.344152e+00 4.500000e+00
      endloop
   endfacet
   facet normal -1.045285e-01 -9.945219e-01 0.000000e+00
      outer loop
         vertex -1.390576e+00 -4.279754e+00 0.000000e+00
         vertex 4.703781e-01 -4.475348e+00 0.000000e+00
         vertex 4.703781e-01 -4.475348e+00 4.500000e+00
      endloop
   endfacet
   facet normal -1.045285e-01 -9.945219e-01 0.000000e+00
      outer loop
         vertex -1.390576e+00 -4.279754e+00 0.000000e+00
         vertex 4.703781e-01 -4.475348e+00 4.500000e+00
         vertex -1.390576e+00 -4.279754e+00 4.500000e+00
      endloop
   endfacet
   facet normal 3.090170e-01 -9.510565e-01 0.000000e+00
      outer loop
         vertex 4.703781e-01 -4.475348e+00 0.000000e+00
         vertex 2.250000e+00 -3.897114e+00 0.000000e+00
         vertex 2.250000e+00 -3.897114e+00 4.500000e+00
      endloop
   endfacet
   facet normal 3.090170e-01 -9.510565e-01 0.000000e+00
      outer loop
         vertex 4.703781e-01 -4.475348e+00 0.000000e+00
         vertex 2.250000e+00 -3.897114e+00 4.500000e+00
         vertex 4.703781e-01 -4.475348e+00 4.500000e+00
      endloop
   endfacet
   facet normal 6.691306e-01 -7.431448e-01 0.000000e+00
      outer loop
         vertex 2.250000e+00 -3.897114e+00 0.000000e+00
         vertex 3.640576e+00 -2.645034e+00 0.000000e+00
         vertex 3.640576e+00 -2.645034e+00 4.500000e+00
      endloop
   endfacet
   facet normal 6.691306e-01 -7.431448e-01 0.000000e+00
      outer loop
         vertex 2.250000e+00 -3.897114e+00 0.000000e+00
         vertex 3.640576e+00 -2.645034e+00 4.500000e+00
         vertex 2.250000e+00 -3.897114e+00 4.500000e+00
      endloop
   endfacet
   facet normal 9.135454e-01 -4.067367e-01 0.000000e+00
      outer loop
         vertex 3.640576e+00 -2.645034e+00 0.000000e+00
         vertex 4.401664e+00 -9.356026e-01 0.000000e+00
         vertex 4.401664e+00 -9.356026e-01 4.500000e+00
      endloop
   endfacet
   facet normal 9.135454e-01 -4.067367e-01 0.000000e+00
      outer loop
         vertex 3.640576e+00 -2.645034e+00 0.000000e+00
         vertex 4.401664e+00 -9.356026e-01 4.500000e+00
         vertex 3.640576e+00 -2.645034e+00 4.500000e+00
      endloop
   endfacet
   facet normal 1.000000e+00 0.000000e+00 -0.000000e+00
      outer loop
         vertex 4.401664e+00 -9.356026e-01 0.000000e+00
         vertex 4.401664e+00 9.356026e-01 0.000000e+00
         vertex 4.401664e+00 9.356026e-01 4.500000e+00
      endloop
   endfacet
   facet normal 1.000000e+00 0.000000e+00 0.000000e+00
      outer loop
         vertex 4.401664e+00 -9.356026e-01 0.000000e+00
         vertex 4.401664e+00 9.356026e-01 4.500000e+00
         vertex 4.401664e+00 -9.356026e-01 4.500000e+00
      endloop
   endfacet
   facet normal 9.135454e-01 4.067367e-01 -0.000000e+00
      outer loop
         vertex 4.401664e+00 9.356026e-01 0.000000e+00
         vertex 3.640576e+00 2.645034e+00 0.000000e+00
         vertex 3.640576e+00 2.645034e+00 4.500000e+00
      endloop
   endfacet
   facet normal 9.135454e-01 4.067367e-01 0.000000e+00
      outer loop
         vertex 4.401664e+00 9.356026e-01 0.000000e+00
         vertex 3.640576e+00 2.645034e+00 4.500000e+00
         vertex 4.401664e+00 9.356026e-01 4.500000e+00
      endloop
   endfacet
   facet normal 6.691306e-01 7.431448e-01 -0.000000e+00
      outer loop
         vertex 3.640576e+00 2.645034e+00 0.000000e+00
         vertex 2.250000e+00 3.897114e+00 0.000000e+00
         vertex 2.250000e+00 3.897114e+00 4.500000e+00
      endloop
   endfacet
   facet normal 6.691306e-01 7.431448e-01 0.000000e+00
      outer loop
         vertex 3.640576e+00 2.645034e+00 0.000000e+00
         vertex 2.250000e+00 3.897114e+00 4.500000e+00
         vertex 3.640576e+00 2.645034e+00 4.500000e+00
      endloop
   endfacet
   facet normal 3.090170e-01 9.510565e-01 -0.000000e+00
      outer loop
         vertex 2.250000e+00 3.897114e+00 0.000000e+00
         vertex 4.703781e-01 4.475348e+00 0.000000e+00
         vertex 4.703781e-01 4.475348e+00 4.500000e+00
      endloop
   endfacet
   facet normal 3.090170e-01 9.510565e-01 0.000000e+00
      outer loop
         vertex 2.250000e+00 3.897114e+00 0.000000e+00
         vertex 4.703781e-01 4.475348e+00 4.500000e+00
         vertex 2.250000e+00 3.897114e+00 4.500000e+00
      endloop
   endfacet
   facet normal -1.045285e-01 9.945219e-01 0.000000e+00
      outer loop
         vertex 4.703781e-01 4.475348e+00 0.000000e+00
         vertex -1.390576e+00 4.279754e+00 0.000000e+00
         vertex -1.390576e+00 4.279754e+00 4.500000e+00
      endloop
   endfacet
   facet normal -1.045285e-01 9.945219e-01 0.000000e+00
      outer loop
         vertex 4.703781e-01 4.475348e+00 0.000000e+00
         vertex -1.390576e+00 4.279754e+00 4.500000e+00
         vertex 4.703781e-01 4.475348e+00 4.500000e+00
      endloop
   endfacet
   facet normal -4.999999e-01 8.660254e-01 0.000000e+00
      outer loop
         vertex -1.390576e+00 4.279754e+00 0.000000e+00
         vertex -3.011088e+00 3.344152e+00 0.000000e+00
         vertex -3.011088e+00 3.344152e+00 4.500000e+00
      endloop
   endfacet
   facet normal -4.999999e-01 8.660254e-01 0.000000e+00
      outer loop
         vertex -1.390576e+00 4.279754e+00 0.000000e+00
         vertex -3.011088e+00 3.344152e+00 4.500000e+00
         vertex -1.390576e+00 4.279754e+00 4.500000e+00
      endloop
   endfacet
   facet normal -8.090169e-01 5.877853e-01 0.000000e+00
      outer loop
         vertex -3.011088e+00 3.344152e+00 0.000000e+00
         vertex -4.110955e+00 1.830315e+00 0.000000e+00
         vertex -4.110955e+00 1.830315e+00 4.500000e+00
      endloop
   endfacet
   facet normal -8.090169e-01 5.877853e-01 0.000000e+00
      outer loop
         vertex -3.011088e+00 3.344152e+00 0.000000e+00
         vertex -4.110955e+00 1.830315e+00 4.500000e+00
         vertex -3.011088e+00 3.344152e+00 4.500000e+00
      endloop
   endfacet
   facet normal -9.781476e-01 2.079116e-01 0.000000e+00
      outer loop
         vertex -4.110955e+00 1.830315e+00 0.000000e+00
         vertex -4.500000e+00 1.653273e-15 0.000000e+00
         vertex -4.500000e+00 1.653273e-15 4.500000e+00
      endloop
   endfacet
   facet normal -9.781476e-01 2.079116e-01 0.000000e+00
      outer loop
         vertex -4.110955e+00 1.830315e+00 0.000000e+00
         vertex -4.500000e+00 1.653273e-15 4.500000e+00
         vertex -4.110955e+00 1.830315e+00 4.500000e+00
      endloop
   endfacet
endsolid
