solid 
   facet normal 0.000000e+00 0.000000e+00 -1.000000e+00
      outer loop
         vertex -7.071068e-01 -7.071068e-01 8.000000e+00
         vertex -1.000000e+00 2.449294e-16 8.000000e+00
         vertex -1.836970e-16 -1.000000e+00 8.000000e+00
      endloop
   endfacet
   facet normal 0.000000e+00 -0.000000e+00 -1.000000e+00
      outer loop
         vertex -1.000000e+00 2.449294e-16 8.000000e+00
         vertex -7.071068e-01 7.071068e-01 8.000000e+00
         vertex -1.836970e-16 -1.000000e+00 8.000000e+00
      endloop
   endfacet
   facet normal 0.000000e+00 0.000000e+00 -1.000000e+00
      outer loop
         vertex -1.836970e-16 -1.000000e+00 8.000000e+00
         vertex -7.071068e-01 7.071068e-01 8.000000e+00
         vertex 7.071068e-01 -7.071068e-01 8.000000e+00
      endloop
   endfacet
   facet normal 0.000000e+00 -0.000000e+00 -1.000000e+00
      outer loop
         vertex -7.071068e-01 7.071068e-01 8.000000e+00
         vertex 3.061617e-16 1.000000e+00 8.000000e+00
         vertex 7.071068e-01 -7.071068e-01 8.000000e+00
      endloop
   endfacet
   facet normal 0.000000e+00 0.000000e+00 -1.000000e+00
      outer loop
         vertex 7.071068e-01 -7.071068e-01 8.000000e+00
         vertex 3.061617e-16 1.000000e+00 8.000000e+00
         vertex 1.000000e+00 -2.449294e-16 8.000000e+00
      endloop
   endfacet
   facet normal -0.000000e+00 -0.000000e+00 -1.000000e+00
      outer loop
         vertex 3.061617e-16 1.000000e+00 8.000000e+00
         vertex 7.071068e-01 7.071068e-01 8.000000e+00
         vertex 1.000000e+00 -2.449294e-16 8.000000e+00
      endloop
   endfacet
   facet normal 0.000000e+00 0.000000e+00 -1.000000e+00
      outer loop
         vertex -3.099096e+00 -1.626531e+00 8.000000e+00
         vertex -3.500000e+00 -4.898587e-16 8.000000e+00
         vertex -1.988227e+00 -2.880444e+00 8.000000e+00
      endloop
   endfacet
   facet normal 0.000000e+00 -0.000000e+00 -1.000000e+00
      outer loop
         vertex -3.500000e+00 -4.898587e-16 8.000000e+00
         vertex -3.099096e+00 1.626531e+00 8.000000e+00
         vertex -1.988227e+00 -2.880444e+00 8.000000e+00
      endloop
   endfacet
   facet normal 0.000000e+00 -0.000000e+00 -1.000000e+00
      outer loop
         vertex -1.988227e+00 -2.880444e+00 8.000000e+00
         vertex -1.850000e+00 -2.034699e+00 8.000000e+00
         vertex -4.218784e-01 -3.474481e+00 8.000000e+00
      endloop
   endfacet
   facet normal -0.000000e+00 -0.000000e+00 -1.000000e+00
      outer loop
         vertex -1.850000e+00 -2.034699e+00 8.000000e+00
         vertex -6.695985e-01 -2.667234e+00 8.000000e+00
         vertex -4.218784e-01 -3.474481e+00 8.000000e+00
      endloop
   endfacet
   facet normal 0.000000e+00 0.000000e+00 -1.000000e+00
      outer loop
         vertex -4.218784e-01 -3.474481e+00 8.000000e+00
         vertex -6.695985e-01 -2.667234e+00 8.000000e+00
         vertex 1.241117e+00 -3.272557e+00 8.000000e+00
      endloop
   endfacet
   facet normal -0.000000e+00 -0.000000e+00 -1.000000e+00
      outer loop
         vertex -6.695985e-01 -2.667234e+00 8.000000e+00
         vertex 6.695985e-01 -2.667234e+00 8.000000e+00
         vertex 1.241117e+00 -3.272557e+00 8.000000e+00
      endloop
   endfacet
   facet normal 0.000000e+00 0.000000e+00 -1.000000e+00
      outer loop
         vertex 1.241117e+00 -3.272557e+00 8.000000e+00
         vertex 6.695985e-01 -2.667234e+00 8.000000e+00
         vertex 2.619788e+00 -2.320929e+00 8.000000e+00
      endloop
   endfacet
   facet normal 0.000000e+00 -0.000000e+00 -1.000000e+00
      outer loop
         vertex 6.695985e-01 -2.667234e+00 8.000000e+00
         vertex 1.850000e+00 -2.034699e+00 8.000000e+00
         vertex 2.619788e+00 -2.320929e+00 8.000000e+00
      endloop
   endfacet
   facet normal 0.000000e+00 0.000000e+00 -1.000000e+00
      outer loop
         vertex 2.619788e+00 -2.320929e+00 8.000000e+00
         vertex 1.850000e+00 -2.034699e+00 8.000000e+00
         vertex 3.398296e+00 -8.376048e-01 8.000000e+00
      endloop
   endfacet
   facet normal 0.000000e+00 0.000000e+00 -1.000000e+00
      outer loop
         vertex 1.850000e+00 -2.034699e+00 8.000000e+00
         vertex 1.850000e+00 2.034699e+00 8.000000e+00
         vertex 3.398296e+00 -8.376048e-01 8.000000e+00
      endloop
   endfacet
   facet normal 0.000000e+00 0.000000e+00 -1.000000e+00
      outer loop
         vertex 3.398296e+00 -8.376048e-01 8.000000e+00
         vertex 1.850000e+00 2.034699e+00 8.000000e+00
         vertex 3.398296e+00 8.376048e-01 8.000000e+00
      endloop
   endfacet
   facet normal 0.000000e+00 0.000000e+00 -1.000000e+00
      outer loop
         vertex -1.850000e+00 -2.034699e+00 8.000000e+00
         vertex -1.988227e+00 -2.880444e+00 8.000000e+00
         vertex -1.850000e+00 2.034699e+00 8.000000e+00
      endloop
   endfacet
   facet normal 0.000000e+00 0.000000e+00 -1.000000e+00
      outer loop
         vertex -1.988227e+00 -2.880444e+00 8.000000e+00
         vertex -3.099096e+00 1.626531e+00 8.000000e+00
         vertex -1.850000e+00 2.034699e+00 8.000000e+00
      endloop
   endfacet
   facet normal 0.000000e+00 -0.000000e+00 -1.000000e+00
      outer loop
         vertex -3.099096e+00 1.626531e+00 8.000000e+00
         vertex -1.988227e+00 2.880444e+00 8.000000e+00
         vertex -1.850000e+00 2.034699e+00 8.000000e+00
      endloop
   endfacet
   facet normal 0.000000e+00 0.000000e+00 -1.000000e+00
      outer loop
         vertex -1.850000e+00 2.034699e+00 8.000000e+00
         vertex -1.988227e+00 2.880444e+00 8.000000e+00
         vertex -6.695985e-01 2.667234e+00 8.000000e+00
      endloop
   endfacet
   facet normal 0.000000e+00 0.000000e+00 -1.000000e+00
      outer loop
         vertex -1.988227e+00 2.880444e+00 8.000000e+00
         vertex -4.218784e-01 3.474481e+00 8.000000e+00
         vertex -6.695985e-01 2.667234e+00 8.000000e+00
      endloop
   endfacet
   facet normal 0.000000e+00 -0.000000e+00 -1.000000e+00
      outer loop
         vertex -6.695985e-01 2.667234e+00 8.000000e+00
         vertex -4.218784e-01 3.474481e+00 8.000000e+00
         vertex 6.695985e-01 2.667234e+00 8.000000e+00
      endloop
   endfacet
   facet normal -0.000000e+00 0.000000e+00 -1.000000e+00
      outer loop
         vertex -4.218784e-01 3.474481e+00 8.000000e+00
         vertex 1.241117e+00 3.272557e+00 8.000000e+00
         vertex 6.695985e-01 2.667234e+00 8.000000e+00
      endloop
   endfacet
   facet normal 0.000000e+00 -0.000000e+00 -1.000000e+00
      outer loop
         vertex 6.695985e-01 2.667234e+00 8.000000e+00
         vertex 1.241117e+00 3.272557e+00 8.000000e+00
         vertex 1.850000e+00 2.034699e+00 8.000000e+00
      endloop
   endfacet
   facet normal -0.000000e+00 0.000000e+00 -1.000000e+00
      outer loop
         vertex 1.241117e+00 3.272557e+00 8.000000e+00
         vertex 2.619788e+00 2.320929e+00 8.000000e+00
         vertex 1.850000e+00 2.034699e+00 8.000000e+00
      endloop
   endfacet
   facet normal 0.000000e+00 -0.000000e+00 -1.000000e+00
      outer loop
         vertex 1.850000e+00 2.034699e+00 8.000000e+00
         vertex 2.619788e+00 2.320929e+00 8.000000e+00
         vertex 3.398296e+00 8.376048e-01 8.000000e+00
      endloop
   endfacet
   facet normal 4.723242e-01 8.814249e-01 -0.000000e+00
      outer loop
         vertex 1.850000e+00 2.034699e+00 0.000000e+00
         vertex 6.695985e-01 2.667234e+00 0.000000e+00
         vertex 6.695985e-01 2.667234e+00 8.000000e+00
      endloop
   endfacet
   facet normal 4.723242e-01 8.814249e-01 0.000000e+00
      outer loop
         vertex 1.850000e+00 2.034699e+00 0.000000e+00
         vertex 6.695985e-01 2.667234e+00 8.000000e+00
         vertex 1.850000e+00 2.034699e+00 8.000000e+00
      endloop
   endfacet
   facet normal 0.000000e+00 1.000000e+00 0.000000e+00
      outer loop
         vertex 6.695985e-01 2.667234e+00 0.000000e+00
         vertex -6.695985e-01 2.667234e+00 0.000000e+00
         vertex -6.695985e-01 2.667234e+00 8.000000e+00
      endloop
   endfacet
   facet normal -0.000000e+00 1.000000e+00 0.000000e+00
      outer loop
         vertex 6.695985e-01 2.667234e+00 0.000000e+00
         vertex -6.695985e-01 2.667234e+00 8.000000e+00
         vertex 6.695985e-01 2.667234e+00 8.000000e+00
      endloop
   endfacet
   facet normal -4.723242e-01 8.814249e-01 0.000000e+00
      outer loop
         vertex -6.695985e-01 2.667234e+00 0.000000e+00
         vertex -1.850000e+00 2.034699e+00 0.000000e+00
         vertex -1.850000e+00 2.034699e+00 8.000000e+00
      endloop
   endfacet
   facet normal -4.723242e-01 8.814249e-01 0.000000e+00
      outer loop
         vertex -6.695985e-01 2.667234e+00 0.000000e+00
         vertex -1.850000e+00 2.034699e+00 8.000000e+00
         vertex -6.695985e-01 2.667234e+00 8.000000e+00
      endloop
   endfacet
   facet normal -4.723242e-01 -8.814249e-01 0.000000e+00
      outer loop
         vertex -1.850000e+00 -2.034699e+00 0.000000e+00
         vertex -6.695985e-01 -2.667234e+00 0.000000e+00
         vertex -6.695985e-01 -2.667234e+00 8.000000e+00
      endloop
   endfacet
   facet normal -4.723242e-01 -8.814249e-01 0.000000e+00
      outer loop
         vertex -1.850000e+00 -2.034699e+00 0.000000e+00
         vertex -6.695985e-01 -2.667234e+00 8.000000e+00
         vertex -1.850000e+00 -2.034699e+00 8.000000e+00
      endloop
   endfacet
   facet normal 0.000000e+00 -1.000000e+00 0.000000e+00
      outer loop
         vertex -6.695985e-01 -2.667234e+00 0.000000e+00
         vertex 6.695985e-01 -2.667234e+00 0.000000e+00
         vertex 6.695985e-01 -2.667234e+00 8.000000e+00
      endloop
   endfacet
   facet normal -0.000000e+00 -1.000000e+00 0.000000e+00
      outer loop
         vertex -6.695985e-01 -2.667234e+00 0.000000e+00
         vertex 6.695985e-01 -2.667234e+00 8.000000e+00
         vertex -6.695985e-01 -2.667234e+00 8.000000e+00
      endloop
   endfacet
   facet normal 4.723242e-01 -8.814249e-01 0.000000e+00
      outer loop
         vertex 6.695985e-01 -2.667234e+00 0.000000e+00
         vertex 1.850000e+00 -2.034699e+00 0.000000e+00
         vertex 1.850000e+00 -2.034699e+00 8.000000e+00
      endloop
   endfacet
   facet normal 4.723242e-01 -8.814249e-01 0.000000e+00
      outer loop
         vertex 6.695985e-01 -2.667234e+00 0.000000e+00
         vertex 1.850000e+00 -2.034699e+00 8.000000e+00
         vertex 6.695985e-01 -2.667234e+00 8.000000e+00
      endloop
   endfacet
   facet normal 9.238795e-01 3.826835e-01 -0.000000e+00
      outer loop
         vertex -7.071068e-01 -7.071068e-01 8.000000e+00
         vertex -7.071068e-01 -7.071068e-01 0.000000e+00
         vertex -1.000000e+00 1.224647e-16 0.000000e+00
      endloop
   endfacet
   facet normal 9.238795e-01 3.826835e-01 0.000000e+00
      outer loop
         vertex -1.000000e+00 1.224647e-16 8.000000e+00
         vertex -7.071068e-01 -7.071068e-01 8.000000e+00
         vertex -1.000000e+00 1.224647e-16 0.000000e+00
      endloop
   endfacet
   facet normal 3.826835e-01 9.238795e-01 -0.000000e+00
      outer loop
         vertex -1.836970e-16 -1.000000e+00 8.000000e+00
         vertex -1.836970e-16 -1.000000e+00 0.000000e+00
         vertex -7.071068e-01 -7.071068e-01 0.000000e+00
      endloop
   endfacet
   facet normal 3.826835e-01 9.238795e-01 0.000000e+00
      outer loop
         vertex -7.071068e-01 -7.071068e-01 8.000000e+00
         vertex -1.836970e-16 -1.000000e+00 8.000000e+00
         vertex -7.071068e-01 -7.071068e-01 0.000000e+00
      endloop
   endfacet
   facet normal -3.826835e-01 9.238795e-01 0.000000e+00
      outer loop
         vertex 7.071068e-01 -7.071068e-01 8.000000e+00
         vertex 7.071068e-01 -7.071068e-01 0.000000e+00
         vertex -1.836970e-16 -1.000000e+00 0.000000e+00
      endloop
   endfacet
   facet normal -3.826835e-01 9.238795e-01 0.000000e+00
      outer loop
         vertex -1.836970e-16 -1.000000e+00 8.000000e+00
         vertex 7.071068e-01 -7.071068e-01 8.000000e+00
         vertex -1.836970e-16 -1.000000e+00 0.000000e+00
      endloop
   endfacet
   facet normal -9.238795e-01 3.826835e-01 0.000000e+00
      outer loop
         vertex 1.000000e+00 -2.449294e-16 8.000000e+00
         vertex 1.000000e+00 -2.449294e-16 0.000000e+00
         vertex 7.071068e-01 -7.071068e-01 0.000000e+00
      endloop
   endfacet
   facet normal -9.238795e-01 3.826835e-01 0.000000e+00
      outer loop
         vertex 7.071068e-01 -7.071068e-01 8.000000e+00
         vertex 1.000000e+00 -2.449294e-16 8.000000e+00
         vertex 7.071068e-01 -7.071068e-01 0.000000e+00
      endloop
   endfacet
   facet normal -9.238795e-01 -3.826835e-01 0.000000e+00
      outer loop
         vertex 7.071068e-01 7.071068e-01 8.000000e+00
         vertex 7.071068e-01 7.071068e-01 0.000000e+00
         vertex 1.000000e+00 -2.449294e-16 0.000000e+00
      endloop
   endfacet
   facet normal -9.238795e-01 -3.826835e-01 0.000000e+00
      outer loop
         vertex 1.000000e+00 -2.449294e-16 8.000000e+00
         vertex 7.071068e-01 7.071068e-01 8.000000e+00
         vertex 1.000000e+00 -2.449294e-16 0.000000e+00
      endloop
   endfacet
   facet normal -3.826835e-01 -9.238795e-01 0.000000e+00
      outer loop
         vertex 3.061617e-16 1.000000e+00 8.000000e+00
         vertex 3.061617e-16 1.000000e+00 0.000000e+00
         vertex 7.071068e-01 7.071068e-01 0.000000e+00
      endloop
   endfacet
   facet normal -3.826835e-01 -9.238795e-01 0.000000e+00
      outer loop
         vertex 7.071068e-01 7.071068e-01 8.000000e+00
         vertex 3.061617e-16 1.000000e+00 8.000000e+00
         vertex 7.071068e-01 7.071068e-01 0.000000e+00
      endloop
   endfacet
   facet normal 3.826835e-01 -9.238795e-01 0.000000e+00
      outer loop
         vertex -7.071068e-01 7.071068e-01 8.000000e+00
         vertex -7.071068e-01 7.071068e-01 0.000000e+00
         vertex 3.061617e-16 1.000000e+00 0.000000e+00
      endloop
   endfacet
   facet normal 3.826835e-01 -9.238795e-01 0.000000e+00
      outer loop
         vertex 3.061617e-16 1.000000e+00 8.000000e+00
         vertex -7.071068e-01 7.071068e-01 8.000000e+00
         vertex 3.061617e-16 1.000000e+00 0.000000e+00
      endloop
   endfacet
   facet normal 9.238795e-01 -3.826835e-01 0.000000e+00
      outer loop
         vertex -1.000000e+00 3.673940e-16 8.000000e+00
         vertex -1.000000e+00 3.673940e-16 0.000000e+00
         vertex -7.071068e-01 7.071068e-01 0.000000e+00
      endloop
   endfacet
   facet normal 9.238795e-01 -3.826835e-01 0.000000e+00
      outer loop
         vertex -7.071068e-01 7.071068e-01 8.000000e+00
         vertex -1.000000e+00 3.673940e-16 8.000000e+00
         vertex -7.071068e-01 7.071068e-01 0.000000e+00
      endloop
   endfacet
   facet normal -9.709418e-01 2.393157e-01 0.000000e+00
      outer loop
         vertex -3.500000e+00 -6.662079e-16 1.088000e+01
         vertex -3.099096e+00 1.626531e+00 1.088000e+01
         vertex -3.099096e+00 1.626531e+00 8.000000e+00
      endloop
   endfacet
   facet normal -9.709418e-01 2.393157e-01 0.000000e+00
      outer loop
         vertex -3.500000e+00 -6.662079e-16 1.088000e+01
         vertex -3.099096e+00 1.626531e+00 8.000000e+00
         vertex -3.500000e+00 -4.898587e-16 8.000000e+00
      endloop
   endfacet
   facet normal -7.485108e-01 6.631226e-01 0.000000e+00
      outer loop
         vertex -3.099096e+00 1.626531e+00 1.088000e+01
         vertex -1.988227e+00 2.880444e+00 1.088000e+01
         vertex -1.988227e+00 2.880444e+00 8.000000e+00
      endloop
   endfacet
   facet normal -7.485108e-01 6.631226e-01 0.000000e+00
      outer loop
         vertex -3.099096e+00 1.626531e+00 1.088000e+01
         vertex -1.988227e+00 2.880444e+00 8.000000e+00
         vertex -3.099096e+00 1.626531e+00 8.000000e+00
      endloop
   endfacet
   facet normal -3.546049e-01 9.350162e-01 0.000000e+00
      outer loop
         vertex -1.988227e+00 2.880444e+00 1.088000e+01
         vertex -4.218784e-01 3.474481e+00 1.088000e+01
         vertex -4.218784e-01 3.474481e+00 8.000000e+00
      endloop
   endfacet
   facet normal -3.546049e-01 9.350162e-01 0.000000e+00
      outer loop
         vertex -1.988227e+00 2.880444e+00 1.088000e+01
         vertex -4.218784e-01 3.474481e+00 8.000000e+00
         vertex -1.988227e+00 2.880444e+00 8.000000e+00
      endloop
   endfacet
   facet normal 1.205367e-01 9.927089e-01 0.000000e+00
      outer loop
         vertex -4.218784e-01 3.474481e+00 1.088000e+01
         vertex 1.241117e+00 3.272557e+00 1.088000e+01
         vertex 1.241117e+00 3.272557e+00 8.000000e+00
      endloop
   endfacet
   facet normal 1.205367e-01 9.927089e-01 0.000000e+00
      outer loop
         vertex -4.218784e-01 3.474481e+00 1.088000e+01
         vertex 1.241117e+00 3.272557e+00 8.000000e+00
         vertex -4.218784e-01 3.474481e+00 8.000000e+00
      endloop
   endfacet
   facet normal 5.680647e-01 8.229839e-01 0.000000e+00
      outer loop
         vertex 1.241117e+00 3.272557e+00 1.088000e+01
         vertex 2.619788e+00 2.320929e+00 1.088000e+01
         vertex 2.619788e+00 2.320929e+00 8.000000e+00
      endloop
   endfacet
   facet normal 5.680647e-01 8.229839e-01 0.000000e+00
      outer loop
         vertex 1.241117e+00 3.272557e+00 1.088000e+01
         vertex 2.619788e+00 2.320929e+00 8.000000e+00
         vertex 1.241117e+00 3.272557e+00 8.000000e+00
      endloop
   endfacet
   facet normal 8.854560e-01 4.647231e-01 0.000000e+00
      outer loop
         vertex 2.619788e+00 2.320929e+00 1.088000e+01
         vertex 3.398296e+00 8.376048e-01 1.088000e+01
         vertex 3.398296e+00 8.376048e-01 8.000000e+00
      endloop
   endfacet
   facet normal 8.854560e-01 4.647231e-01 0.000000e+00
      outer loop
         vertex 2.619788e+00 2.320929e+00 1.088000e+01
         vertex 3.398296e+00 8.376048e-01 8.000000e+00
         vertex 2.619788e+00 2.320929e+00 8.000000e+00
      endloop
   endfacet
   facet normal 1.000000e+00 -0.000000e+00 0.000000e+00
      outer loop
         vertex 3.398296e+00 8.376048e-01 1.088000e+01
         vertex 3.398296e+00 -8.376048e-01 1.088000e+01
         vertex 3.398296e+00 -8.376048e-01 8.000000e+00
      endloop
   endfacet
   facet normal 1.000000e+00 0.000000e+00 0.000000e+00
      outer loop
         vertex 3.398296e+00 8.376048e-01 1.088000e+01
         vertex 3.398296e+00 -8.376048e-01 8.000000e+00
         vertex 3.398296e+00 8.376048e-01 8.000000e+00
      endloop
   endfacet
   facet normal 8.854560e-01 -4.647231e-01 0.000000e+00
      outer loop
         vertex 3.398296e+00 -8.376048e-01 1.088000e+01
         vertex 2.619788e+00 -2.320929e+00 1.088000e+01
         vertex 2.619788e+00 -2.320929e+00 8.000000e+00
      endloop
   endfacet
   facet normal 8.854560e-01 -4.647231e-01 0.000000e+00
      outer loop
         vertex 3.398296e+00 -8.376048e-01 1.088000e+01
         vertex 2.619788e+00 -2.320929e+00 8.000000e+00
         vertex 3.398296e+00 -8.376048e-01 8.000000e+00
      endloop
   endfacet
   facet normal 5.680647e-01 -8.229839e-01 0.000000e+00
      outer loop
         vertex 2.619788e+00 -2.320929e+00 1.088000e+01
         vertex 1.241117e+00 -3.272557e+00 1.088000e+01
         vertex 1.241117e+00 -3.272557e+00 8.000000e+00
      endloop
   endfacet
   facet normal 5.680647e-01 -8.229839e-01 0.000000e+00
      outer loop
         vertex 2.619788e+00 -2.320929e+00 1.088000e+01
         vertex 1.241117e+00 -3.272557e+00 8.000000e+00
         vertex 2.619788e+00 -2.320929e+00 8.000000e+00
      endloop
   endfacet
   facet normal 1.205367e-01 -9.927089e-01 0.000000e+00
      outer loop
         vertex 1.241117e+00 -3.272557e+00 1.088000e+01
         vertex -4.218784e-01 -3.474481e+00 1.088000e+01
         vertex -4.218784e-01 -3.474481e+00 8.000000e+00
      endloop
   endfacet
   facet normal 1.205367e-01 -9.927089e-01 0.000000e+00
      outer loop
         vertex 1.241117e+00 -3.272557e+00 1.088000e+01
         vertex -4.218784e-01 -3.474481e+00 8.000000e+00
         vertex 1.241117e+00 -3.272557e+00 8.000000e+00
      endloop
   endfacet
   facet normal -3.546049e-01 -9.350162e-01 -0.000000e+00
      outer loop
         vertex -4.218784e-01 -3.474481e+00 1.088000e+01
         vertex -1.988227e+00 -2.880444e+00 1.088000e+01
         vertex -1.988227e+00 -2.880444e+00 8.000000e+00
      endloop
   endfacet
   facet normal -3.546049e-01 -9.350162e-01 0.000000e+00
      outer loop
         vertex -4.218784e-01 -3.474481e+00 1.088000e+01
         vertex -1.988227e+00 -2.880444e+00 8.000000e+00
         vertex -4.218784e-01 -3.474481e+00 8.000000e+00
      endloop
   endfacet
   facet normal -7.485108e-01 -6.631226e-01 -0.000000e+00
      outer loop
         vertex -1.988227e+00 -2.880444e+00 1.088000e+01
         vertex -3.099096e+00 -1.626531e+00 1.088000e+01
         vertex -3.099096e+00 -1.626531e+00 8.000000e+00
      endloop
   endfacet
   facet normal -7.485108e-01 -6.631226e-01 0.000000e+00
      outer loop
         vertex -1.988227e+00 -2.880444e+00 1.088000e+01
         vertex -3.099096e+00 -1.626531e+00 8.000000e+00
         vertex -1.988227e+00 -2.880444e+00 8.000000e+00
      endloop
   endfacet
   facet normal -9.709418e-01 -2.393157e-01 -1.465386e-17
      outer loop
         vertex -3.099096e+00 -1.626531e+00 1.088000e+01
         vertex -3.500000e+00 -1.523461e-15 1.088000e+01
         vertex -3.500000e+00 -1.347111e-15 8.000000e+00
      endloop
   endfacet
   facet normal -9.709418e-01 -2.393157e-01 0.000000e+00
      outer loop
         vertex -3.099096e+00 -1.626531e+00 1.088000e+01
         vertex -3.500000e+00 -1.347111e-15 8.000000e+00
         vertex -3.099096e+00 -1.626531e+00 8.000000e+00
      endloop
   endfacet
   facet normal -1.000000e+00 0.000000e+00 0.000000e+00
      outer loop
         vertex -1.850000e+00 -2.034699e+00 0.000000e+00
         vertex -1.850000e+00 -2.034699e+00 8.000000e+00
         vertex -1.850000e+00 2.034699e+00 8.000000e+00
      endloop
   endfacet
   facet normal -1.000000e+00 0.000000e+00 -0.000000e+00
      outer loop
         vertex -1.850000e+00 -2.034699e+00 0.000000e+00
         vertex -1.850000e+00 2.034699e+00 8.000000e+00
         vertex -1.850000e+00 2.034699e+00 0.000000e+00
      endloop
   endfacet
   facet normal 1.000000e+00 0.000000e+00 0.000000e+00
      outer loop
         vertex 1.850000e+00 2.034699e+00 0.000000e+00
         vertex 1.850000e+00 2.034699e+00 8.000000e+00
         vertex 1.850000e+00 -2.034699e+00 8.000000e+00
      endloop
   endfacet
   facet normal 1.000000e+00 0.000000e+00 0.000000e+00
      outer loop
         vertex 1.850000e+00 2.034699e+00 0.000000e+00
         vertex 1.850000e+00 -2.034699e+00 8.000000e+00
         vertex 1.850000e+00 -2.034699e+00 0.000000e+00
      endloop
   endfacet
   facet normal 0.000000e+00 0.000000e+00 -1.000000e+00
      outer loop
         vertex 1.850000e+00 2.034699e+00 0.000000e+00
         vertex 1.850000e+00 -2.034699e+00 0.000000e+00
         vertex 6.695985e-01 2.667234e+00 0.000000e+00
      endloop
   endfacet
   facet normal 0.000000e+00 0.000000e+00 -1.000000e+00
      outer loop
         vertex 1.850000e+00 -2.034699e+00 0.000000e+00
         vertex 1.000000e+00 -2.449294e-16 0.000000e+00
         vertex 6.695985e-01 2.667234e+00 0.000000e+00
      endloop
   endfacet
   facet normal 0.000000e+00 0.000000e+00 -1.000000e+00
      outer loop
         vertex 6.695985e-01 2.667234e+00 0.000000e+00
         vertex 7.071068e-01 7.071068e-01 0.000000e+00
         vertex -6.695985e-01 2.667234e+00 0.000000e+00
      endloop
   endfacet
   facet normal 0.000000e+00 0.000000e+00 -1.000000e+00
      outer loop
         vertex 7.071068e-01 7.071068e-01 0.000000e+00
         vertex 3.061617e-16 1.000000e+00 0.000000e+00
         vertex -6.695985e-01 2.667234e+00 0.000000e+00
      endloop
   endfacet
   facet normal 0.000000e+00 0.000000e+00 -1.000000e+00
      outer loop
         vertex -6.695985e-01 2.667234e+00 0.000000e+00
         vertex 3.061617e-16 1.000000e+00 0.000000e+00
         vertex -1.850000e+00 2.034699e+00 0.000000e+00
      endloop
   endfacet
   facet normal 0.000000e+00 0.000000e+00 -1.000000e+00
      outer loop
         vertex 3.061617e-16 1.000000e+00 0.000000e+00
         vertex -7.071068e-01 7.071068e-01 0.000000e+00
         vertex -1.850000e+00 2.034699e+00 0.000000e+00
      endloop
   endfacet
   facet normal -0.000000e+00 0.000000e+00 -1.000000e+00
      outer loop
         vertex -1.850000e+00 2.034699e+00 0.000000e+00
         vertex -7.071068e-01 7.071068e-01 0.000000e+00
         vertex -1.850000e+00 -2.034699e+00 0.000000e+00
      endloop
   endfacet
   facet normal -0.000000e+00 0.000000e+00 -1.000000e+00
      outer loop
         vertex -7.071068e-01 7.071068e-01 0.000000e+00
         vertex -1.000000e+00 1.224647e-16 0.000000e+00
         vertex -1.850000e+00 -2.034699e+00 0.000000e+00
      endloop
   endfacet
   facet normal 0.000000e+00 -0.000000e+00 -1.000000e+00
      outer loop
         vertex -1.850000e+00 -2.034699e+00 0.000000e+00
         vertex -1.000000e+00 1.224647e-16 0.000000e+00
         vertex -6.695985e-01 -2.667234e+00 0.000000e+00
      endloop
   endfacet
   facet normal -0.000000e+00 -0.000000e+00 -1.000000e+00
      outer loop
         vertex -1.000000e+00 1.224647e-16 0.000000e+00
         vertex -7.071068e-01 -7.071068e-01 0.000000e+00
         vertex -6.695985e-01 -2.667234e+00 0.000000e+00
      endloop
   endfacet
   facet normal 0.000000e+00 0.000000e+00 -1.000000e+00
      outer loop
         vertex -6.695985e-01 -2.667234e+00 0.000000e+00
         vertex -7.071068e-01 -7.071068e-01 0.000000e+00
         vertex 6.695985e-01 -2.667234e+00 0.000000e+00
      endloop
   endfacet
   facet normal -0.000000e+00 -0.000000e+00 -1.000000e+00
      outer loop
         vertex -7.071068e-01 -7.071068e-01 0.000000e+00
         vertex -1.836970e-16 -1.000000e+00 0.000000e+00
         vertex 6.695985e-01 -2.667234e+00 0.000000e+00
      endloop
   endfacet
   facet normal 0.000000e+00 0.000000e+00 -1.000000e+00
      outer loop
         vertex 6.695985e-01 -2.667234e+00 0.000000e+00
         vertex -1.836970e-16 -1.000000e+00 0.000000e+00
         vertex 1.850000e+00 -2.034699e+00 0.000000e+00
      endloop
   endfacet
   facet normal 0.000000e+00 -0.000000e+00 -1.000000e+00
      outer loop
         vertex -1.836970e-16 -1.000000e+00 0.000000e+00
         vertex 7.071068e-01 -7.071068e-01 0.000000e+00
         vertex 1.850000e+00 -2.034699e+00 0.000000e+00
      endloop
   endfacet
   facet normal 0.000000e+00 0.000000e+00 -1.000000e+00
      outer loop
         vertex 1.850000e+00 -2.034699e+00 0.000000e+00
         vertex 7.071068e-01 -7.071068e-01 0.000000e+00
         vertex 1.000000e+00 -2.449294e-16 0.000000e+00
      endloop
   endfacet
   facet normal 0.000000e+00 0.000000e+00 -1.000000e+00
      outer loop
         vertex 7.071068e-01 7.071068e-01 0.000000e+00
         vertex 6.695985e-01 2.667234e+00 0.000000e+00
         vertex 1.000000e+00 -2.449294e-16 0.000000e+00
      endloop
   endfacet
   facet normal 0.000000e+00 0.000000e+00 -1.000000e+00
      outer loop
         vertex -5.688081e+00 -2.203574e+00 1.088000e+01
         vertex -6.100000e+00 -6.662079e-16 1.088000e+01
         vertex -4.507955e+00 -4.109543e+00 1.088000e+01
      endloop
   endfacet
   facet normal 0.000000e+00 -0.000000e+00 -1.000000e+00
      outer loop
         vertex -6.100000e+00 -6.662079e-16 1.088000e+01
         vertex -5.688081e+00 2.203574e+00 1.088000e+01
         vertex -4.507955e+00 -4.109543e+00 1.088000e+01
      endloop
   endfacet
   facet normal 0.000000e+00 0.000000e+00 -1.000000e+00
      outer loop
         vertex -4.507955e+00 -4.109543e+00 1.088000e+01
         vertex -5.688081e+00 2.203574e+00 1.088000e+01
         vertex -2.719004e+00 -5.460496e+00 1.088000e+01
      endloop
   endfacet
   facet normal 0.000000e+00 -0.000000e+00 -1.000000e+00
      outer loop
         vertex -5.688081e+00 2.203574e+00 1.088000e+01
         vertex -4.507955e+00 4.109543e+00 1.088000e+01
         vertex -2.719004e+00 -5.460496e+00 1.088000e+01
      endloop
   endfacet
   facet normal 0.000000e+00 0.000000e+00 -1.000000e+00
      outer loop
         vertex -2.719004e+00 -5.460496e+00 1.088000e+01
         vertex -3.099096e+00 -1.626531e+00 1.088000e+01
         vertex -5.628370e-01 -6.073978e+00 1.088000e+01
      endloop
   endfacet
   facet normal -0.000000e+00 -0.000000e+00 -1.000000e+00
      outer loop
         vertex -3.099096e+00 -1.626531e+00 1.088000e+01
         vertex -1.988227e+00 -2.880444e+00 1.088000e+01
         vertex -5.628370e-01 -6.073978e+00 1.088000e+01
      endloop
   endfacet
   facet normal 0.000000e+00 0.000000e+00 -1.000000e+00
      outer loop
         vertex -5.628370e-01 -6.073978e+00 1.088000e+01
         vertex -1.988227e+00 -2.880444e+00 1.088000e+01
         vertex 1.669344e+00 -5.867136e+00 1.088000e+01
      endloop
   endfacet
   facet normal -0.000000e+00 -0.000000e+00 -1.000000e+00
      outer loop
         vertex -1.988227e+00 -2.880444e+00 1.088000e+01
         vertex -4.218784e-01 -3.474481e+00 1.088000e+01
         vertex 1.669344e+00 -5.867136e+00 1.088000e+01
      endloop
   endfacet
   facet normal 0.000000e+00 0.000000e+00 -1.000000e+00
      outer loop
         vertex 1.669344e+00 -5.867136e+00 1.088000e+01
         vertex -4.218784e-01 -3.474481e+00 1.088000e+01
         vertex 3.676071e+00 -4.867905e+00 1.088000e+01
      endloop
   endfacet
   facet normal 0.000000e+00 -0.000000e+00 -1.000000e+00
      outer loop
         vertex -4.218784e-01 -3.474481e+00 1.088000e+01
         vertex 1.241117e+00 -3.272557e+00 1.088000e+01
         vertex 3.676071e+00 -4.867905e+00 1.088000e+01
      endloop
   endfacet
   facet normal 0.000000e+00 0.000000e+00 -1.000000e+00
      outer loop
         vertex 3.676071e+00 -4.867905e+00 1.088000e+01
         vertex 1.241117e+00 -3.272557e+00 1.088000e+01
         vertex 5.186325e+00 -3.211236e+00 1.088000e+01
      endloop
   endfacet
   facet normal 0.000000e+00 -0.000000e+00 -1.000000e+00
      outer loop
         vertex 1.241117e+00 -3.272557e+00 1.088000e+01
         vertex 2.619788e+00 -2.320929e+00 1.088000e+01
         vertex 5.186325e+00 -3.211236e+00 1.088000e+01
      endloop
   endfacet
   facet normal 0.000000e+00 0.000000e+00 -1.000000e+00
      outer loop
         vertex 5.186325e+00 -3.211236e+00 1.088000e+01
         vertex 2.619788e+00 -2.320929e+00 1.088000e+01
         vertex 5.996136e+00 -1.120872e+00 1.088000e+01
      endloop
   endfacet
   facet normal 0.000000e+00 -0.000000e+00 -1.000000e+00
      outer loop
         vertex 2.619788e+00 -2.320929e+00 1.088000e+01
         vertex 3.398296e+00 -8.376048e-01 1.088000e+01
         vertex 5.996136e+00 -1.120872e+00 1.088000e+01
      endloop
   endfacet
   facet normal 0.000000e+00 0.000000e+00 -1.000000e+00
      outer loop
         vertex 5.996136e+00 -1.120872e+00 1.088000e+01
         vertex 3.398296e+00 -8.376048e-01 1.088000e+01
         vertex 5.996136e+00 1.120872e+00 1.088000e+01
      endloop
   endfacet
   facet normal 0.000000e+00 0.000000e+00 -1.000000e+00
      outer loop
         vertex 3.398296e+00 -8.376048e-01 1.088000e+01
         vertex 3.398296e+00 8.376048e-01 1.088000e+01
         vertex 5.996136e+00 1.120872e+00 1.088000e+01
      endloop
   endfacet
   facet normal 0.000000e+00 0.000000e+00 -1.000000e+00
      outer loop
         vertex 5.996136e+00 1.120872e+00 1.088000e+01
         vertex 3.398296e+00 8.376048e-01 1.088000e+01
         vertex 5.186325e+00 3.211236e+00 1.088000e+01
      endloop
   endfacet
   facet normal 0.000000e+00 0.000000e+00 -1.000000e+00
      outer loop
         vertex 3.398296e+00 8.376048e-01 1.088000e+01
         vertex 2.619788e+00 2.320929e+00 1.088000e+01
         vertex 5.186325e+00 3.211236e+00 1.088000e+01
      endloop
   endfacet
   facet normal 0.000000e+00 0.000000e+00 -1.000000e+00
      outer loop
         vertex 5.186325e+00 3.211236e+00 1.088000e+01
         vertex 2.619788e+00 2.320929e+00 1.088000e+01
         vertex 3.676071e+00 4.867905e+00 1.088000e+01
      endloop
   endfacet
   facet normal 0.000000e+00 0.000000e+00 -1.000000e+00
      outer loop
         vertex 2.619788e+00 2.320929e+00 1.088000e+01
         vertex 1.241117e+00 3.272557e+00 1.088000e+01
         vertex 3.676071e+00 4.867905e+00 1.088000e+01
      endloop
   endfacet
   facet normal 0.000000e+00 0.000000e+00 -1.000000e+00
      outer loop
         vertex 3.676071e+00 4.867905e+00 1.088000e+01
         vertex 1.241117e+00 3.272557e+00 1.088000e+01
         vertex 1.669344e+00 5.867136e+00 1.088000e+01
      endloop
   endfacet
   facet normal 0.000000e+00 0.000000e+00 -1.000000e+00
      outer loop
         vertex 1.241117e+00 3.272557e+00 1.088000e+01
         vertex -4.218784e-01 3.474481e+00 1.088000e+01
         vertex 1.669344e+00 5.867136e+00 1.088000e+01
      endloop
   endfacet
   facet normal 0.000000e+00 0.000000e+00 -1.000000e+00
      outer loop
         vertex 1.669344e+00 5.867136e+00 1.088000e+01
         vertex -4.218784e-01 3.474481e+00 1.088000e+01
         vertex -5.628370e-01 6.073978e+00 1.088000e+01
      endloop
   endfacet
   facet normal 0.000000e+00 0.000000e+00 -1.000000e+00
      outer loop
         vertex -4.218784e-01 3.474481e+00 1.088000e+01
         vertex -1.988227e+00 2.880444e+00 1.088000e+01
         vertex -5.628370e-01 6.073978e+00 1.088000e+01
      endloop
   endfacet
   facet normal 0.000000e+00 0.000000e+00 -1.000000e+00
      outer loop
         vertex -5.628370e-01 6.073978e+00 1.088000e+01
         vertex -1.988227e+00 2.880444e+00 1.088000e+01
         vertex -2.719004e+00 5.460496e+00 1.088000e+01
      endloop
   endfacet
   facet normal 0.000000e+00 0.000000e+00 -1.000000e+00
      outer loop
         vertex -1.988227e+00 2.880444e+00 1.088000e+01
         vertex -3.099096e+00 1.626531e+00 1.088000e+01
         vertex -2.719004e+00 5.460496e+00 1.088000e+01
      endloop
   endfacet
   facet normal 0.000000e+00 0.000000e+00 -1.000000e+00
      outer loop
         vertex -2.719004e+00 5.460496e+00 1.088000e+01
         vertex -3.099096e+00 1.626531e+00 1.088000e+01
         vertex -4.507955e+00 4.109543e+00 1.088000e+01
      endloop
   endfacet
   facet normal 0.000000e+00 0.000000e+00 -1.000000e+00
      outer loop
         vertex -3.099096e+00 1.626531e+00 1.088000e+01
         vertex -3.500000e+00 -6.662079e-16 1.088000e+01
         vertex -4.507955e+00 4.109543e+00 1.088000e+01
      endloop
   endfacet
   facet normal -0.000000e+00 -0.000000e+00 -1.000000e+00
      outer loop
         vertex -4.507955e+00 4.109543e+00 1.088000e+01
         vertex -3.500000e+00 -6.662079e-16 1.088000e+01
         vertex -2.719004e+00 -5.460496e+00 1.088000e+01
      endloop
   endfacet
   facet normal -0.000000e+00 -0.000000e+00 -1.000000e+00
      outer loop
         vertex -3.500000e+00 -6.662079e-16 1.088000e+01
         vertex -3.099096e+00 -1.626531e+00 1.088000e+01
         vertex -2.719004e+00 -5.460496e+00 1.088000e+01
      endloop
   endfacet
   facet normal -9.829731e-01 1.837494e-01 0.000000e+00
      outer loop
         vertex -6.100000e+00 -7.886725e-16 1.288000e+01
         vertex -5.688081e+00 2.203574e+00 1.288000e+01
         vertex -5.688081e+00 2.203574e+00 1.088000e+01
      endloop
   endfacet
   facet normal -9.829731e-01 1.837494e-01 0.000000e+00
      outer loop
         vertex -6.100000e+00 -7.886725e-16 1.288000e+01
         vertex -5.688081e+00 2.203574e+00 1.088000e+01
         vertex -6.100000e+00 -6.662079e-16 1.088000e+01
      endloop
   endfacet
   facet normal -8.502171e-01 5.264322e-01 0.000000e+00
      outer loop
         vertex -5.688081e+00 2.203574e+00 1.288000e+01
         vertex -4.507955e+00 4.109543e+00 1.288000e+01
         vertex -4.507955e+00 4.109543e+00 1.088000e+01
      endloop
   endfacet
   facet normal -8.502171e-01 5.264322e-01 0.000000e+00
      outer loop
         vertex -5.688081e+00 2.203574e+00 1.288000e+01
         vertex -4.507955e+00 4.109543e+00 1.088000e+01
         vertex -5.688081e+00 2.203574e+00 1.088000e+01
      endloop
   endfacet
   facet normal -6.026346e-01 7.980173e-01 0.000000e+00
      outer loop
         vertex -4.507955e+00 4.109543e+00 1.288000e+01
         vertex -2.719004e+00 5.460496e+00 1.288000e+01
         vertex -2.719004e+00 5.460496e+00 1.088000e+01
      endloop
   endfacet
   facet normal -6.026346e-01 7.980173e-01 0.000000e+00
      outer loop
         vertex -4.507955e+00 4.109543e+00 1.288000e+01
         vertex -2.719004e+00 5.460496e+00 1.088000e+01
         vertex -4.507955e+00 4.109543e+00 1.088000e+01
      endloop
   endfacet
   facet normal -2.736630e-01 9.618256e-01 0.000000e+00
      outer loop
         vertex -2.719004e+00 5.460496e+00 1.288000e+01
         vertex -5.628370e-01 6.073978e+00 1.288000e+01
         vertex -5.628370e-01 6.073978e+00 1.088000e+01
      endloop
   endfacet
   facet normal -2.736630e-01 9.618256e-01 0.000000e+00
      outer loop
         vertex -2.719004e+00 5.460496e+00 1.288000e+01
         vertex -5.628370e-01 6.073978e+00 1.088000e+01
         vertex -2.719004e+00 5.460496e+00 1.088000e+01
      endloop
   endfacet
   facet normal 9.226831e-02 9.957342e-01 0.000000e+00
      outer loop
         vertex -5.628370e-01 6.073978e+00 1.288000e+01
         vertex 1.669344e+00 5.867136e+00 1.288000e+01
         vertex 1.669344e+00 5.867136e+00 1.088000e+01
      endloop
   endfacet
   facet normal 9.226831e-02 9.957342e-01 0.000000e+00
      outer loop
         vertex -5.628370e-01 6.073978e+00 1.288000e+01
         vertex 1.669344e+00 5.867136e+00 1.088000e+01
         vertex -5.628370e-01 6.073978e+00 1.088000e+01
      endloop
   endfacet
   facet normal 4.457384e-01 8.951633e-01 0.000000e+00
      outer loop
         vertex 1.669344e+00 5.867136e+00 1.288000e+01
         vertex 3.676071e+00 4.867905e+00 1.288000e+01
         vertex 3.676071e+00 4.867905e+00 1.088000e+01
      endloop
   endfacet
   facet normal 4.457384e-01 8.951633e-01 0.000000e+00
      outer loop
         vertex 1.669344e+00 5.867136e+00 1.288000e+01
         vertex 3.676071e+00 4.867905e+00 1.088000e+01
         vertex 1.669344e+00 5.867136e+00 1.088000e+01
      endloop
   endfacet
   facet normal 7.390089e-01 6.736957e-01 0.000000e+00
      outer loop
         vertex 3.676071e+00 4.867905e+00 1.288000e+01
         vertex 5.186325e+00 3.211236e+00 1.288000e+01
         vertex 5.186325e+00 3.211236e+00 1.088000e+01
      endloop
   endfacet
   facet normal 7.390089e-01 6.736957e-01 0.000000e+00
      outer loop
         vertex 3.676071e+00 4.867905e+00 1.288000e+01
         vertex 5.186325e+00 3.211236e+00 1.088000e+01
         vertex 3.676071e+00 4.867905e+00 1.088000e+01
      endloop
   endfacet
   facet normal 9.324723e-01 3.612416e-01 0.000000e+00
      outer loop
         vertex 5.186325e+00 3.211236e+00 1.288000e+01
         vertex 5.996136e+00 1.120872e+00 1.288000e+01
         vertex 5.996136e+00 1.120872e+00 1.088000e+01
      endloop
   endfacet
   facet normal 9.324723e-01 3.612416e-01 0.000000e+00
      outer loop
         vertex 5.186325e+00 3.211236e+00 1.288000e+01
         vertex 5.996136e+00 1.120872e+00 1.088000e+01
         vertex 5.186325e+00 3.211236e+00 1.088000e+01
      endloop
   endfacet
   facet normal 1.000000e+00 -0.000000e+00 0.000000e+00
      outer loop
         vertex 5.996136e+00 1.120872e+00 1.288000e+01
         vertex 5.996136e+00 -1.120872e+00 1.288000e+01
         vertex 5.996136e+00 -1.120872e+00 1.088000e+01
      endloop
   endfacet
   facet normal 1.000000e+00 0.000000e+00 0.000000e+00
      outer loop
         vertex 5.996136e+00 1.120872e+00 1.288000e+01
         vertex 5.996136e+00 -1.120872e+00 1.088000e+01
         vertex 5.996136e+00 1.120872e+00 1.088000e+01
      endloop
   endfacet
   facet normal 9.324723e-01 -3.612416e-01 0.000000e+00
      outer loop
         vertex 5.996136e+00 -1.120872e+00 1.288000e+01
         vertex 5.186325e+00 -3.211236e+00 1.288000e+01
         vertex 5.186325e+00 -3.211236e+00 1.088000e+01
      endloop
   endfacet
   facet normal 9.324723e-01 -3.612416e-01 0.000000e+00
      outer loop
         vertex 5.996136e+00 -1.120872e+00 1.288000e+01
         vertex 5.186325e+00 -3.211236e+00 1.088000e+01
         vertex 5.996136e+00 -1.120872e+00 1.088000e+01
      endloop
   endfacet
   facet normal 7.390089e-01 -6.736957e-01 0.000000e+00
      outer loop
         vertex 5.186325e+00 -3.211236e+00 1.288000e+01
         vertex 3.676071e+00 -4.867905e+00 1.288000e+01
         vertex 3.676071e+00 -4.867905e+00 1.088000e+01
      endloop
   endfacet
   facet normal 7.390089e-01 -6.736957e-01 0.000000e+00
      outer loop
         vertex 5.186325e+00 -3.211236e+00 1.288000e+01
         vertex 3.676071e+00 -4.867905e+00 1.088000e+01
         vertex 5.186325e+00 -3.211236e+00 1.088000e+01
      endloop
   endfacet
   facet normal 4.457384e-01 -8.951633e-01 0.000000e+00
      outer loop
         vertex 3.676071e+00 -4.867905e+00 1.288000e+01
         vertex 1.669344e+00 -5.867136e+00 1.288000e+01
         vertex 1.669344e+00 -5.867136e+00 1.088000e+01
      endloop
   endfacet
   facet normal 4.457384e-01 -8.951633e-01 0.000000e+00
      outer loop
         vertex 3.676071e+00 -4.867905e+00 1.288000e+01
         vertex 1.669344e+00 -5.867136e+00 1.088000e+01
         vertex 3.676071e+00 -4.867905e+00 1.088000e+01
      endloop
   endfacet
   facet normal 9.226831e-02 -9.957342e-01 0.000000e+00
      outer loop
         vertex 1.669344e+00 -5.867136e+00 1.288000e+01
         vertex -5.628370e-01 -6.073978e+00 1.288000e+01
         vertex -5.628370e-01 -6.073978e+00 1.088000e+01
      endloop
   endfacet
   facet normal 9.226831e-02 -9.957342e-01 0.000000e+00
      outer loop
         vertex 1.669344e+00 -5.867136e+00 1.288000e+01
         vertex -5.628370e-01 -6.073978e+00 1.088000e+01
         vertex 1.669344e+00 -5.867136e+00 1.088000e+01
      endloop
   endfacet
   facet normal -2.736630e-01 -9.618256e-01 -0.000000e+00
      outer loop
         vertex -5.628370e-01 -6.073978e+00 1.288000e+01
         vertex -2.719004e+00 -5.460496e+00 1.288000e+01
         vertex -2.719004e+00 -5.460496e+00 1.088000e+01
      endloop
   endfacet
   facet normal -2.736630e-01 -9.618256e-01 0.000000e+00
      outer loop
         vertex -5.628370e-01 -6.073978e+00 1.288000e+01
         vertex -2.719004e+00 -5.460496e+00 1.088000e+01
         vertex -5.628370e-01 -6.073978e+00 1.088000e+01
      endloop
   endfacet
   facet normal -6.026346e-01 -7.980173e-01 -0.000000e+00
      outer loop
         vertex -2.719004e+00 -5.460496e+00 1.288000e+01
         vertex -4.507955e+00 -4.109543e+00 1.288000e+01
         vertex -4.507955e+00 -4.109543e+00 1.088000e+01
      endloop
   endfacet
   facet normal -6.026346e-01 -7.980173e-01 0.000000e+00
      outer loop
         vertex -2.719004e+00 -5.460496e+00 1.288000e+01
         vertex -4.507955e+00 -4.109543e+00 1.088000e+01
         vertex -2.719004e+00 -5.460496e+00 1.088000e+01
      endloop
   endfacet
   facet normal -8.502171e-01 -5.264322e-01 -0.000000e+00
      outer loop
         vertex -4.507955e+00 -4.109543e+00 1.288000e+01
         vertex -5.688081e+00 -2.203574e+00 1.288000e+01
         vertex -5.688081e+00 -2.203574e+00 1.088000e+01
      endloop
   endfacet
   facet normal -8.502171e-01 -5.264322e-01 0.000000e+00
      outer loop
         vertex -4.507955e+00 -4.109543e+00 1.288000e+01
         vertex -5.688081e+00 -2.203574e+00 1.088000e+01
         vertex -4.507955e+00 -4.109543e+00 1.088000e+01
      endloop
   endfacet
   facet normal -9.829731e-01 -1.837494e-01 -1.125142e-17
      outer loop
         vertex -5.688081e+00 -2.203574e+00 1.288000e+01
         vertex -6.100000e+00 -2.282742e-15 1.288000e+01
         vertex -6.100000e+00 -2.160277e-15 1.088000e+01
      endloop
   endfacet
   facet normal -9.829731e-01 -1.837494e-01 0.000000e+00
      outer loop
         vertex -5.688081e+00 -2.203574e+00 1.288000e+01
         vertex -6.100000e+00 -2.160277e-15 1.088000e+01
         vertex -5.688081e+00 -2.203574e+00 1.088000e+01
      endloop
   endfacet
   facet normal 0.000000e+00 0.000000e+00 1.000000e+00
      outer loop
         vertex -5.688081e+00 2.203574e+00 1.288000e+01
         vertex -6.100000e+00 -7.886725e-16 1.288000e+01
         vertex -4.507955e+00 4.109543e+00 1.288000e+01
      endloop
   endfacet
   facet normal 0.000000e+00 -0.000000e+00 1.000000e+00
      outer loop
         vertex -6.100000e+00 -7.886725e-16 1.288000e+01
         vertex -5.688081e+00 -2.203574e+00 1.288000e+01
         vertex -4.507955e+00 4.109543e+00 1.288000e+01
      endloop
   endfacet
   facet normal 0.000000e+00 0.000000e+00 1.000000e+00
      outer loop
         vertex -4.507955e+00 4.109543e+00 1.288000e+01
         vertex -5.688081e+00 -2.203574e+00 1.288000e+01
         vertex -2.719004e+00 5.460496e+00 1.288000e+01
      endloop
   endfacet
   facet normal 0.000000e+00 -0.000000e+00 1.000000e+00
      outer loop
         vertex -5.688081e+00 -2.203574e+00 1.288000e+01
         vertex -3.693972e+00 1.778923e+00 1.288000e+01
         vertex -2.719004e+00 5.460496e+00 1.288000e+01
      endloop
   endfacet
   facet normal 0.000000e+00 0.000000e+00 1.000000e+00
      outer loop
         vertex -2.719004e+00 5.460496e+00 1.288000e+01
         vertex -3.693972e+00 1.778923e+00 1.288000e+01
         vertex -5.628370e-01 6.073978e+00 1.288000e+01
      endloop
   endfacet
   facet normal 0.000000e+00 -0.000000e+00 1.000000e+00
      outer loop
         vertex -3.693972e+00 1.778923e+00 1.288000e+01
         vertex -2.556308e+00 3.205509e+00 1.288000e+01
         vertex -5.628370e-01 6.073978e+00 1.288000e+01
      endloop
   endfacet
   facet normal 0.000000e+00 0.000000e+00 1.000000e+00
      outer loop
         vertex -5.628370e-01 6.073978e+00 1.288000e+01
         vertex -2.556308e+00 3.205509e+00 1.288000e+01
         vertex 1.669344e+00 5.867136e+00 1.288000e+01
      endloop
   endfacet
   facet normal 0.000000e+00 -0.000000e+00 1.000000e+00
      outer loop
         vertex -2.556308e+00 3.205509e+00 1.288000e+01
         vertex -9.123358e-01 3.997205e+00 1.288000e+01
         vertex 1.669344e+00 5.867136e+00 1.288000e+01
      endloop
   endfacet
   facet normal 0.000000e+00 0.000000e+00 1.000000e+00
      outer loop
         vertex 1.669344e+00 5.867136e+00 1.288000e+01
         vertex -9.123358e-01 3.997205e+00 1.288000e+01
         vertex 3.676071e+00 4.867905e+00 1.288000e+01
      endloop
   endfacet
   facet normal 0.000000e+00 -0.000000e+00 1.000000e+00
      outer loop
         vertex -9.123358e-01 3.997205e+00 1.288000e+01
         vertex 9.123358e-01 3.997205e+00 1.288000e+01
         vertex 3.676071e+00 4.867905e+00 1.288000e+01
      endloop
   endfacet
   facet normal -0.000000e+00 0.000000e+00 1.000000e+00
      outer loop
         vertex 3.676071e+00 4.867905e+00 1.288000e+01
         vertex 9.123358e-01 3.997205e+00 1.288000e+01
         vertex 5.186325e+00 3.211236e+00 1.288000e+01
      endloop
   endfacet
   facet normal 0.000000e+00 -0.000000e+00 1.000000e+00
      outer loop
         vertex 9.123358e-01 3.997205e+00 1.288000e+01
         vertex 2.556308e+00 3.205509e+00 1.288000e+01
         vertex 5.186325e+00 3.211236e+00 1.288000e+01
      endloop
   endfacet
   facet normal -0.000000e+00 0.000000e+00 1.000000e+00
      outer loop
         vertex 5.186325e+00 3.211236e+00 1.288000e+01
         vertex 2.556308e+00 3.205509e+00 1.288000e+01
         vertex 5.996136e+00 1.120872e+00 1.288000e+01
      endloop
   endfacet
   facet normal -0.000000e+00 -0.000000e+00 1.000000e+00
      outer loop
         vertex 2.556308e+00 3.205509e+00 1.288000e+01
         vertex 3.693972e+00 1.778923e+00 1.288000e+01
         vertex 5.996136e+00 1.120872e+00 1.288000e+01
      endloop
   endfacet
   facet normal 0.000000e+00 0.000000e+00 1.000000e+00
      outer loop
         vertex 5.996136e+00 1.120872e+00 1.288000e+01
         vertex 3.693972e+00 1.778923e+00 1.288000e+01
         vertex 5.996136e+00 -1.120872e+00 1.288000e+01
      endloop
   endfacet
   facet normal -0.000000e+00 -0.000000e+00 1.000000e+00
      outer loop
         vertex 3.693972e+00 1.778923e+00 1.288000e+01
         vertex 4.100000e+00 -2.865673e-16 1.288000e+01
         vertex 5.996136e+00 -1.120872e+00 1.288000e+01
      endloop
   endfacet
   facet normal 0.000000e+00 0.000000e+00 1.000000e+00
      outer loop
         vertex 5.996136e+00 -1.120872e+00 1.288000e+01
         vertex 4.100000e+00 -2.865673e-16 1.288000e+01
         vertex 5.186325e+00 -3.211236e+00 1.288000e+01
      endloop
   endfacet
   facet normal -0.000000e+00 0.000000e+00 1.000000e+00
      outer loop
         vertex 4.100000e+00 -2.865673e-16 1.288000e+01
         vertex 3.693972e+00 -1.778923e+00 1.288000e+01
         vertex 5.186325e+00 -3.211236e+00 1.288000e+01
      endloop
   endfacet
   facet normal 0.000000e+00 0.000000e+00 1.000000e+00
      outer loop
         vertex 5.186325e+00 -3.211236e+00 1.288000e+01
         vertex 3.693972e+00 -1.778923e+00 1.288000e+01
         vertex 3.676071e+00 -4.867905e+00 1.288000e+01
      endloop
   endfacet
   facet normal -0.000000e+00 0.000000e+00 1.000000e+00
      outer loop
         vertex 3.693972e+00 -1.778923e+00 1.288000e+01
         vertex 2.556308e+00 -3.205509e+00 1.288000e+01
         vertex 3.676071e+00 -4.867905e+00 1.288000e+01
      endloop
   endfacet
   facet normal 0.000000e+00 0.000000e+00 1.000000e+00
      outer loop
         vertex 3.676071e+00 -4.867905e+00 1.288000e+01
         vertex 2.556308e+00 -3.205509e+00 1.288000e+01
         vertex 1.669344e+00 -5.867136e+00 1.288000e+01
      endloop
   endfacet
   facet normal -0.000000e+00 0.000000e+00 1.000000e+00
      outer loop
         vertex 2.556308e+00 -3.205509e+00 1.288000e+01
         vertex 9.123358e-01 -3.997205e+00 1.288000e+01
         vertex 1.669344e+00 -5.867136e+00 1.288000e+01
      endloop
   endfacet
   facet normal 0.000000e+00 0.000000e+00 1.000000e+00
      outer loop
         vertex 1.669344e+00 -5.867136e+00 1.288000e+01
         vertex 9.123358e-01 -3.997205e+00 1.288000e+01
         vertex -5.628370e-01 -6.073978e+00 1.288000e+01
      endloop
   endfacet
   facet normal -0.000000e+00 0.000000e+00 1.000000e+00
      outer loop
         vertex 9.123358e-01 -3.997205e+00 1.288000e+01
         vertex -9.123358e-01 -3.997205e+00 1.288000e+01
         vertex -5.628370e-01 -6.073978e+00 1.288000e+01
      endloop
   endfacet
   facet normal 0.000000e+00 0.000000e+00 1.000000e+00
      outer loop
         vertex -5.628370e-01 -6.073978e+00 1.288000e+01
         vertex -9.123358e-01 -3.997205e+00 1.288000e+01
         vertex -2.719004e+00 -5.460496e+00 1.288000e+01
      endloop
   endfacet
   facet normal 0.000000e+00 0.000000e+00 1.000000e+00
      outer loop
         vertex -9.123358e-01 -3.997205e+00 1.288000e+01
         vertex -2.556308e+00 -3.205509e+00 1.288000e+01
         vertex -2.719004e+00 -5.460496e+00 1.288000e+01
      endloop
   endfacet
   facet normal 0.000000e+00 0.000000e+00 1.000000e+00
      outer loop
         vertex -2.719004e+00 -5.460496e+00 1.288000e+01
         vertex -2.556308e+00 -3.205509e+00 1.288000e+01
         vertex -4.507955e+00 -4.109543e+00 1.288000e+01
      endloop
   endfacet
   facet normal 0.000000e+00 0.000000e+00 1.000000e+00
      outer loop
         vertex -2.556308e+00 -3.205509e+00 1.288000e+01
         vertex -3.693972e+00 -1.778923e+00 1.288000e+01
         vertex -4.507955e+00 -4.109543e+00 1.288000e+01
      endloop
   endfacet
   facet normal 0.000000e+00 0.000000e+00 1.000000e+00
      outer loop
         vertex -4.507955e+00 -4.109543e+00 1.288000e+01
         vertex -3.693972e+00 -1.778923e+00 1.288000e+01
         vertex -5.688081e+00 -2.203574e+00 1.288000e+01
      endloop
   endfacet
   facet normal 0.000000e+00 0.000000e+00 1.000000e+00
      outer loop
         vertex -3.693972e+00 -1.778923e+00 1.288000e+01
         vertex -4.100000e+00 -7.886725e-16 1.288000e+01
         vertex -5.688081e+00 -2.203574e+00 1.288000e+01
      endloop
   endfacet
   facet normal 0.000000e+00 0.000000e+00 1.000000e+00
      outer loop
         vertex -3.693972e+00 1.778923e+00 1.288000e+01
         vertex -5.688081e+00 -2.203574e+00 1.288000e+01
         vertex -4.100000e+00 -7.886725e-16 1.288000e+01
      endloop
   endfacet
   facet normal -9.749279e-01 2.225209e-01 0.000000e+00
      outer loop
         vertex -4.100000e+00 -1.156067e-15 1.888000e+01
         vertex -3.693972e+00 1.778923e+00 1.888000e+01
         vertex -3.693972e+00 1.778923e+00 1.288000e+01
      endloop
   endfacet
   facet normal -9.749279e-01 2.225209e-01 1.014085e-17
      outer loop
         vertex -4.100000e+00 -1.156067e-15 1.888000e+01
         vertex -3.693972e+00 1.778923e+00 1.288000e+01
         vertex -4.100000e+00 -7.886725e-16 1.288000e+01
      endloop
   endfacet
   facet normal -7.818315e-01 6.234897e-01 0.000000e+00
      outer loop
         vertex -3.693972e+00 1.778923e+00 1.888000e+01
         vertex -2.556308e+00 3.205509e+00 1.888000e+01
         vertex -2.556308e+00 3.205509e+00 1.288000e+01
      endloop
   endfacet
   facet normal -7.818315e-01 6.234897e-01 0.000000e+00
      outer loop
         vertex -3.693972e+00 1.778923e+00 1.888000e+01
         vertex -2.556308e+00 3.205509e+00 1.288000e+01
         vertex -3.693972e+00 1.778923e+00 1.288000e+01
      endloop
   endfacet
   facet normal -4.338837e-01 9.009689e-01 0.000000e+00
      outer loop
         vertex -2.556308e+00 3.205509e+00 1.888000e+01
         vertex -9.123358e-01 3.997205e+00 1.888000e+01
         vertex -9.123358e-01 3.997205e+00 1.288000e+01
      endloop
   endfacet
   facet normal -4.338837e-01 9.009689e-01 0.000000e+00
      outer loop
         vertex -2.556308e+00 3.205509e+00 1.888000e+01
         vertex -9.123358e-01 3.997205e+00 1.288000e+01
         vertex -2.556308e+00 3.205509e+00 1.288000e+01
      endloop
   endfacet
   facet normal 0.000000e+00 1.000000e+00 0.000000e+00
      outer loop
         vertex -9.123358e-01 3.997205e+00 1.888000e+01
         vertex 9.123358e-01 3.997205e+00 1.888000e+01
         vertex 9.123358e-01 3.997205e+00 1.288000e+01
      endloop
   endfacet
   facet normal 0.000000e+00 1.000000e+00 0.000000e+00
      outer loop
         vertex -9.123358e-01 3.997205e+00 1.888000e+01
         vertex 9.123358e-01 3.997205e+00 1.288000e+01
         vertex -9.123358e-01 3.997205e+00 1.288000e+01
      endloop
   endfacet
   facet normal 4.338837e-01 9.009689e-01 0.000000e+00
      outer loop
         vertex 9.123358e-01 3.997205e+00 1.888000e+01
         vertex 2.556308e+00 3.205509e+00 1.888000e+01
         vertex 2.556308e+00 3.205509e+00 1.288000e+01
      endloop
   endfacet
   facet normal 4.338837e-01 9.009689e-01 0.000000e+00
      outer loop
         vertex 9.123358e-01 3.997205e+00 1.888000e+01
         vertex 2.556308e+00 3.205509e+00 1.288000e+01
         vertex 9.123358e-01 3.997205e+00 1.288000e+01
      endloop
   endfacet
   facet normal 7.818315e-01 6.234897e-01 0.000000e+00
      outer loop
         vertex 2.556308e+00 3.205509e+00 1.888000e+01
         vertex 3.693972e+00 1.778923e+00 1.888000e+01
         vertex 3.693972e+00 1.778923e+00 1.288000e+01
      endloop
   endfacet
   facet normal 7.818315e-01 6.234897e-01 0.000000e+00
      outer loop
         vertex 2.556308e+00 3.205509e+00 1.888000e+01
         vertex 3.693972e+00 1.778923e+00 1.288000e+01
         vertex 2.556308e+00 3.205509e+00 1.288000e+01
      endloop
   endfacet
   facet normal 9.749279e-01 2.225209e-01 1.362547e-17
      outer loop
         vertex 3.693972e+00 1.778923e+00 1.888000e+01
         vertex 4.100000e+00 2.987570e-15 1.888000e+01
         vertex 4.100000e+00 3.354964e-15 1.288000e+01
      endloop
   endfacet
   facet normal 9.749279e-01 2.225209e-01 0.000000e+00
      outer loop
         vertex 3.693972e+00 1.778923e+00 1.888000e+01
         vertex 4.100000e+00 3.354964e-15 1.288000e+01
         vertex 3.693972e+00 1.778923e+00 1.288000e+01
      endloop
   endfacet
   facet normal 9.749279e-01 -2.225209e-01 0.000000e+00
      outer loop
         vertex 4.100000e+00 2.987570e-15 1.888000e+01
         vertex 3.693972e+00 -1.778923e+00 1.888000e+01
         vertex 3.693972e+00 -1.778923e+00 1.288000e+01
      endloop
   endfacet
   facet normal 9.749279e-01 -2.225209e-01 -1.014085e-17
      outer loop
         vertex 4.100000e+00 2.987570e-15 1.888000e+01
         vertex 3.693972e+00 -1.778923e+00 1.288000e+01
         vertex 4.100000e+00 3.354964e-15 1.288000e+01
      endloop
   endfacet
   facet normal 7.818315e-01 -6.234897e-01 0.000000e+00
      outer loop
         vertex 3.693972e+00 -1.778923e+00 1.888000e+01
         vertex 2.556308e+00 -3.205509e+00 1.888000e+01
         vertex 2.556308e+00 -3.205509e+00 1.288000e+01
      endloop
   endfacet
   facet normal 7.818315e-01 -6.234897e-01 0.000000e+00
      outer loop
         vertex 3.693972e+00 -1.778923e+00 1.888000e+01
         vertex 2.556308e+00 -3.205509e+00 1.288000e+01
         vertex 3.693972e+00 -1.778923e+00 1.288000e+01
      endloop
   endfacet
   facet normal 4.338837e-01 -9.009689e-01 0.000000e+00
      outer loop
         vertex 2.556308e+00 -3.205509e+00 1.888000e+01
         vertex 9.123358e-01 -3.997205e+00 1.888000e+01
         vertex 9.123358e-01 -3.997205e+00 1.288000e+01
      endloop
   endfacet
   facet normal 4.338837e-01 -9.009689e-01 0.000000e+00
      outer loop
         vertex 2.556308e+00 -3.205509e+00 1.888000e+01
         vertex 9.123358e-01 -3.997205e+00 1.288000e+01
         vertex 2.556308e+00 -3.205509e+00 1.288000e+01
      endloop
   endfacet
   facet normal 0.000000e+00 -1.000000e+00 0.000000e+00
      outer loop
         vertex 9.123358e-01 -3.997205e+00 1.888000e+01
         vertex -9.123358e-01 -3.997205e+00 1.888000e+01
         vertex -9.123358e-01 -3.997205e+00 1.288000e+01
      endloop
   endfacet
   facet normal 0.000000e+00 -1.000000e+00 0.000000e+00
      outer loop
         vertex 9.123358e-01 -3.997205e+00 1.888000e+01
         vertex -9.123358e-01 -3.997205e+00 1.288000e+01
         vertex 9.123358e-01 -3.997205e+00 1.288000e+01
      endloop
   endfacet
   facet normal -4.338837e-01 -9.009689e-01 -0.000000e+00
      outer loop
         vertex -9.123358e-01 -3.997205e+00 1.888000e+01
         vertex -2.556308e+00 -3.205509e+00 1.888000e+01
         vertex -2.556308e+00 -3.205509e+00 1.288000e+01
      endloop
   endfacet
   facet normal -4.338837e-01 -9.009689e-01 0.000000e+00
      outer loop
         vertex -9.123358e-01 -3.997205e+00 1.888000e+01
         vertex -2.556308e+00 -3.205509e+00 1.288000e+01
         vertex -9.123358e-01 -3.997205e+00 1.288000e+01
      endloop
   endfacet
   facet normal -7.818315e-01 -6.234897e-01 -0.000000e+00
      outer loop
         vertex -2.556308e+00 -3.205509e+00 1.888000e+01
         vertex -3.693972e+00 -1.778923e+00 1.888000e+01
         vertex -3.693972e+00 -1.778923e+00 1.288000e+01
      endloop
   endfacet
   facet normal -7.818315e-01 -6.234897e-01 0.000000e+00
      outer loop
         vertex -2.556308e+00 -3.205509e+00 1.888000e+01
         vertex -3.693972e+00 -1.778923e+00 1.288000e+01
         vertex -2.556308e+00 -3.205509e+00 1.288000e+01
      endloop
   endfacet
   facet normal -9.749279e-01 -2.225209e-01 -1.362547e-17
      outer loop
         vertex -3.693972e+00 -1.778923e+00 1.888000e+01
         vertex -4.100000e+00 -2.160277e-15 1.888000e+01
         vertex -4.100000e+00 -1.792883e-15 1.288000e+01
      endloop
   endfacet
   facet normal -9.749279e-01 -2.225209e-01 0.000000e+00
      outer loop
         vertex -3.693972e+00 -1.778923e+00 1.888000e+01
         vertex -4.100000e+00 -1.792883e-15 1.288000e+01
         vertex -3.693972e+00 -1.778923e+00 1.288000e+01
      endloop
   endfacet
   facet normal 0.000000e+00 0.000000e+00 1.000000e+00
      outer loop
         vertex -2.793004e+00 1.345040e+00 1.988000e+01
         vertex -3.100000e+00 -1.596939e-15 1.988000e+01
         vertex -1.932818e+00 2.423678e+00 1.988000e+01
      endloop
   endfacet
   facet normal 0.000000e+00 -0.000000e+00 1.000000e+00
      outer loop
         vertex -3.100000e+00 -1.596939e-15 1.988000e+01
         vertex -2.793004e+00 -1.345040e+00 1.988000e+01
         vertex -1.932818e+00 2.423678e+00 1.988000e+01
      endloop
   endfacet
   facet normal 0.000000e+00 0.000000e+00 1.000000e+00
      outer loop
         vertex -1.932818e+00 2.423678e+00 1.988000e+01
         vertex -2.793004e+00 -1.345040e+00 1.988000e+01
         vertex -6.898149e-01 3.022277e+00 1.988000e+01
      endloop
   endfacet
   facet normal 0.000000e+00 -0.000000e+00 1.000000e+00
      outer loop
         vertex -2.793004e+00 -1.345040e+00 1.988000e+01
         vertex -1.932818e+00 -2.423678e+00 1.988000e+01
         vertex -6.898149e-01 3.022277e+00 1.988000e+01
      endloop
   endfacet
   facet normal 0.000000e+00 0.000000e+00 1.000000e+00
      outer loop
         vertex -6.898149e-01 3.022277e+00 1.988000e+01
         vertex -1.932818e+00 -2.423678e+00 1.988000e+01
         vertex 6.898149e-01 3.022277e+00 1.988000e+01
      endloop
   endfacet
   facet normal 0.000000e+00 -0.000000e+00 1.000000e+00
      outer loop
         vertex -1.932818e+00 -2.423678e+00 1.988000e+01
         vertex -6.898149e-01 -3.022277e+00 1.988000e+01
         vertex 6.898149e-01 3.022277e+00 1.988000e+01
      endloop
   endfacet
   facet normal 0.000000e+00 0.000000e+00 1.000000e+00
      outer loop
         vertex 6.898149e-01 3.022277e+00 1.988000e+01
         vertex -6.898149e-01 -3.022277e+00 1.988000e+01
         vertex 1.932818e+00 2.423678e+00 1.988000e+01
      endloop
   endfacet
   facet normal 0.000000e+00 -0.000000e+00 1.000000e+00
      outer loop
         vertex -6.898149e-01 -3.022277e+00 1.988000e+01
         vertex 6.898149e-01 -3.022277e+00 1.988000e+01
         vertex 1.932818e+00 2.423678e+00 1.988000e+01
      endloop
   endfacet
   facet normal 0.000000e+00 0.000000e+00 1.000000e+00
      outer loop
         vertex 1.932818e+00 2.423678e+00 1.988000e+01
         vertex 6.898149e-01 -3.022277e+00 1.988000e+01
         vertex 2.793004e+00 1.345040e+00 1.988000e+01
      endloop
   endfacet
   facet normal 0.000000e+00 -0.000000e+00 1.000000e+00
      outer loop
         vertex 6.898149e-01 -3.022277e+00 1.988000e+01
         vertex 1.932818e+00 -2.423678e+00 1.988000e+01
         vertex 2.793004e+00 1.345040e+00 1.988000e+01
      endloop
   endfacet
   facet normal 0.000000e+00 0.000000e+00 1.000000e+00
      outer loop
         vertex 2.793004e+00 1.345040e+00 1.988000e+01
         vertex 1.932818e+00 -2.423678e+00 1.988000e+01
         vertex 3.100000e+00 -8.376584e-16 1.988000e+01
      endloop
   endfacet
   facet normal 0.000000e+00 -0.000000e+00 1.000000e+00
      outer loop
         vertex 1.932818e+00 -2.423678e+00 1.988000e+01
         vertex 2.793004e+00 -1.345040e+00 1.988000e+01
         vertex 3.100000e+00 -8.376584e-16 1.988000e+01
      endloop
   endfacet
   facet normal -6.980737e-01 1.593307e-01 6.980736e-01
      outer loop
         vertex -2.793004e+00 1.345040e+00 1.988000e+01
         vertex -3.693972e+00 1.778923e+00 1.888000e+01
         vertex -4.100000e+00 -1.156067e-15 1.888000e+01
      endloop
   endfacet
   facet normal -6.980737e-01 1.593307e-01 6.980737e-01
      outer loop
         vertex -3.100000e+00 -1.217299e-15 1.988000e+01
         vertex -2.793004e+00 1.345040e+00 1.988000e+01
         vertex -4.100000e+00 -1.156067e-15 1.888000e+01
      endloop
   endfacet
   facet normal -5.598117e-01 4.464348e-01 6.980737e-01
      outer loop
         vertex -1.932818e+00 2.423678e+00 1.988000e+01
         vertex -2.556308e+00 3.205509e+00 1.888000e+01
         vertex -3.693972e+00 1.778923e+00 1.888000e+01
      endloop
   endfacet
   facet normal -5.598117e-01 4.464349e-01 6.980736e-01
      outer loop
         vertex -2.793004e+00 1.345040e+00 1.988000e+01
         vertex -1.932818e+00 2.423678e+00 1.988000e+01
         vertex -3.693972e+00 1.778923e+00 1.888000e+01
      endloop
   endfacet
   facet normal -3.106720e-01 6.451171e-01 6.980737e-01
      outer loop
         vertex -6.898149e-01 3.022277e+00 1.988000e+01
         vertex -9.123358e-01 3.997205e+00 1.888000e+01
         vertex -2.556308e+00 3.205509e+00 1.888000e+01
      endloop
   endfacet
   facet normal -3.106720e-01 6.451171e-01 6.980737e-01
      outer loop
         vertex -1.932818e+00 2.423678e+00 1.988000e+01
         vertex -6.898149e-01 3.022277e+00 1.988000e+01
         vertex -2.556308e+00 3.205509e+00 1.888000e+01
      endloop
   endfacet
   facet normal 0.000000e+00 7.160259e-01 6.980737e-01
      outer loop
         vertex 6.898149e-01 3.022277e+00 1.988000e+01
         vertex 9.123358e-01 3.997205e+00 1.888000e+01
         vertex -9.123358e-01 3.997205e+00 1.888000e+01
      endloop
   endfacet
   facet normal 0.000000e+00 7.160259e-01 6.980737e-01
      outer loop
         vertex -6.898149e-01 3.022277e+00 1.988000e+01
         vertex 6.898149e-01 3.022277e+00 1.988000e+01
         vertex -9.123358e-01 3.997205e+00 1.888000e+01
      endloop
   endfacet
   facet normal 3.106720e-01 6.451171e-01 6.980737e-01
      outer loop
         vertex 1.932818e+00 2.423678e+00 1.988000e+01
         vertex 2.556308e+00 3.205509e+00 1.888000e+01
         vertex 9.123358e-01 3.997205e+00 1.888000e+01
      endloop
   endfacet
   facet normal 3.106720e-01 6.451171e-01 6.980737e-01
      outer loop
         vertex 6.898149e-01 3.022277e+00 1.988000e+01
         vertex 1.932818e+00 2.423678e+00 1.988000e+01
         vertex 9.123358e-01 3.997205e+00 1.888000e+01
      endloop
   endfacet
   facet normal 5.598117e-01 4.464348e-01 6.980736e-01
      outer loop
         vertex 2.793004e+00 1.345040e+00 1.988000e+01
         vertex 3.693972e+00 1.778923e+00 1.888000e+01
         vertex 2.556308e+00 3.205509e+00 1.888000e+01
      endloop
   endfacet
   facet normal 5.598116e-01 4.464349e-01 6.980737e-01
      outer loop
         vertex 1.932818e+00 2.423678e+00 1.988000e+01
         vertex 2.793004e+00 1.345040e+00 1.988000e+01
         vertex 2.556308e+00 3.205509e+00 1.888000e+01
      endloop
   endfacet
   facet normal 6.980737e-01 1.593307e-01 6.980737e-01
      outer loop
         vertex 3.100000e+00 1.915695e-15 1.988000e+01
         vertex 4.100000e+00 2.987570e-15 1.888000e+01
         vertex 3.693972e+00 1.778923e+00 1.888000e+01
      endloop
   endfacet
   facet normal 6.980737e-01 1.593307e-01 6.980736e-01
      outer loop
         vertex 2.793004e+00 1.345040e+00 1.988000e+01
         vertex 3.100000e+00 1.915695e-15 1.988000e+01
         vertex 3.693972e+00 1.778923e+00 1.888000e+01
      endloop
   endfacet
   facet normal 6.980737e-01 -1.593307e-01 6.980736e-01
      outer loop
         vertex 2.793004e+00 -1.345040e+00 1.988000e+01
         vertex 3.693972e+00 -1.778923e+00 1.888000e+01
         vertex 4.100000e+00 2.987570e-15 1.888000e+01
      endloop
   endfacet
   facet normal 6.980737e-01 -1.593307e-01 6.980737e-01
      outer loop
         vertex 3.100000e+00 1.915695e-15 1.988000e+01
         vertex 2.793004e+00 -1.345040e+00 1.988000e+01
         vertex 4.100000e+00 2.987570e-15 1.888000e+01
      endloop
   endfacet
   facet normal 5.598117e-01 -4.464348e-01 6.980737e-01
      outer loop
         vertex 1.932818e+00 -2.423678e+00 1.988000e+01
         vertex 2.556308e+00 -3.205509e+00 1.888000e+01
         vertex 3.693972e+00 -1.778923e+00 1.888000e+01
      endloop
   endfacet
   facet normal 5.598117e-01 -4.464349e-01 6.980736e-01
      outer loop
         vertex 2.793004e+00 -1.345040e+00 1.988000e+01
         vertex 1.932818e+00 -2.423678e+00 1.988000e+01
         vertex 3.693972e+00 -1.778923e+00 1.888000e+01
      endloop
   endfacet
   facet normal 3.106720e-01 -6.451171e-01 6.980737e-01
      outer loop
         vertex 6.898149e-01 -3.022277e+00 1.988000e+01
         vertex 9.123358e-01 -3.997205e+00 1.888000e+01
         vertex 2.556308e+00 -3.205509e+00 1.888000e+01
      endloop
   endfacet
   facet normal 3.106720e-01 -6.451171e-01 6.980737e-01
      outer loop
         vertex 1.932818e+00 -2.423678e+00 1.988000e+01
         vertex 6.898149e-01 -3.022277e+00 1.988000e+01
         vertex 2.556308e+00 -3.205509e+00 1.888000e+01
      endloop
   endfacet
   facet normal 0.000000e+00 -7.160259e-01 6.980737e-01
      outer loop
         vertex -6.898149e-01 -3.022277e+00 1.988000e+01
         vertex -9.123358e-01 -3.997205e+00 1.888000e+01
         vertex 9.123358e-01 -3.997205e+00 1.888000e+01
      endloop
   endfacet
   facet normal 0.000000e+00 -7.160259e-01 6.980737e-01
      outer loop
         vertex 6.898149e-01 -3.022277e+00 1.988000e+01
         vertex -6.898149e-01 -3.022277e+00 1.988000e+01
         vertex 9.123358e-01 -3.997205e+00 1.888000e+01
      endloop
   endfacet
   facet normal -3.106720e-01 -6.451171e-01 6.980737e-01
      outer loop
         vertex -1.932818e+00 -2.423678e+00 1.988000e+01
         vertex -2.556308e+00 -3.205509e+00 1.888000e+01
         vertex -9.123358e-01 -3.997205e+00 1.888000e+01
      endloop
   endfacet
   facet normal -3.106720e-01 -6.451171e-01 6.980737e-01
      outer loop
         vertex -6.898149e-01 -3.022277e+00 1.988000e+01
         vertex -1.932818e+00 -2.423678e+00 1.988000e+01
         vertex -9.123358e-01 -3.997205e+00 1.888000e+01
      endloop
   endfacet
   facet normal -5.598117e-01 -4.464348e-01 6.980736e-01
      outer loop
         vertex -2.793004e+00 -1.345040e+00 1.988000e+01
         vertex -3.693972e+00 -1.778923e+00 1.888000e+01
         vertex -2.556308e+00 -3.205509e+00 1.888000e+01
      endloop
   endfacet
   facet normal -5.598116e-01 -4.464349e-01 6.980737e-01
      outer loop
         vertex -1.932818e+00 -2.423678e+00 1.988000e+01
         vertex -2.793004e+00 -1.345040e+00 1.988000e+01
         vertex -2.556308e+00 -3.205509e+00 1.888000e+01
      endloop
   endfacet
   facet normal -6.980737e-01 -1.593307e-01 6.980737e-01
      outer loop
         vertex -3.100000e+00 -1.976580e-15 1.988000e+01
         vertex -4.100000e+00 -2.160277e-15 1.888000e+01
         vertex -3.693972e+00 -1.778923e+00 1.888000e+01
      endloop
   endfacet
   facet normal -6.980737e-01 -1.593307e-01 6.980736e-01
      outer loop
         vertex -2.793004e+00 -1.345040e+00 1.988000e+01
         vertex -3.100000e+00 -1.976580e-15 1.988000e+01
         vertex -3.693972e+00 -1.778923e+00 1.888000e+01
      endloop
   endfacet
endsolid
